<svg xmlns="http://www.w3.org/2000/svg" viewBox="0 0 621.93 348.82"><defs><style>.cls-1{fill:#404041;}</style></defs><title>site-logo</title><g id="Lager_2" data-name="Lager 2"><g id="Lager_1-2" data-name="Lager 1"><circle class="cls-1" cx="566.16" cy="112.94" r="16.62" transform="translate(-11.01 99.9) rotate(-9.99)"/><circle class="cls-1" cx="605.3" cy="105.39" r="16.62" transform="translate(-9.11 106.57) rotate(-9.99)"/><circle class="cls-1" cx="579.1" cy="74.92" r="16.62" transform="translate(-4.22 101.56) rotate(-9.99)"/><path class="cls-1" d="M455.33,130.8l-.11-5c-.62-27.56,9.93-55.65,29.7-79.11A138,138,0,0,1,559.68,1.09L564.57,0l1.06,4.89c6,27.79-2.82,59.22-23.62,84.09-20.87,25-51.39,40.62-81.64,41.65ZM556.8,12a128.31,128.31,0,0,0-64.28,41C475.57,73.19,466,96.89,465.19,120.35c25.75-2.42,51.28-16.28,69.17-37.75h0C552,61.58,560.14,35.58,556.8,12Z"/><path class="cls-1" d="M562.56,29.17C554,23.94,545.27,18.53,536.7,13.11l.89-1.4c8.56,5.42,17.25,10.82,25.83,16Z"/><path class="cls-1" d="M557.8,35.17c-8.58-5.33-17.23-10.81-25.71-16.29l.9-1.39c8.48,5.47,17.12,10.95,25.69,16.27Z"/><path class="cls-1" d="M555.49,42.7c-11.27-7.12-22.62-14.47-33.73-21.85l.92-1.38c11.1,7.37,22.44,14.71,33.7,21.83Z"/><path class="cls-1" d="M553.88,50.73c-12.22-7.83-24.51-15.93-36.54-24.07l.93-1.37c12,8.13,24.3,16.22,36.51,24Z"/><path class="cls-1" d="M550.59,57.73c-12.64-8.25-25.33-16.76-37.72-25.3l.94-1.37c12.38,8.54,25.06,17,37.69,25.28Z"/><path class="cls-1" d="M549.45,66.17c-15.81-10.45-31.68-21.32-47.18-32.3l1-1.35c15.48,11,31.34,21.83,47.13,32.27Z"/><path class="cls-1" d="M543.13,71.21c-14.1-9.53-28.25-19.38-42-29.28l1-1.35c13.78,9.89,27.91,19.74,42,29.25Z"/><path class="cls-1" d="M541,79.06c-14.91-10.22-29.88-20.82-44.49-31.51l1-1.34c14.6,10.68,29.55,21.27,44.45,31.48Z"/><path class="cls-1" d="M534.82,84.19c-14.44-10.1-28.91-20.54-43-31l1-1.33c14.08,10.49,28.54,20.93,43,31Z"/><path class="cls-1" d="M531,91C515.2,79.7,499.31,68,483.81,56.19l1-1.32C500.3,66.67,516.18,78.36,532,89.62Z"/><path class="cls-1" d="M523.34,94.92c-13.77-10-27.6-20.38-41.1-30.8l1-1.31c13.49,10.41,27.3,20.77,41.07,30.77Z"/><path class="cls-1" d="M517.27,100c-13.38-9.93-26.79-20.16-39.85-30.43l1-1.3c13,10.26,26.45,20.48,39.82,30.4Z"/><path class="cls-1" d="M512.25,105.86c-12.48-9.42-25-19.15-37.29-28.93l1-1.3c12.25,9.77,24.79,19.49,37.25,28.9Z"/><path class="cls-1" d="M504.85,109.88C493.27,101,481.64,91.76,470.3,82.56l1-1.29c11.33,9.19,22.95,18.37,34.52,27.3Z"/><path class="cls-1" d="M498.48,114.64c-10.89-8.57-21.81-17.35-32.45-26.12l1.06-1.28c10.63,8.76,21.54,17.54,32.42,26.1Z"/><path class="cls-1" d="M489.61,117.36c-8.78-7.06-17.61-14.3-26.24-21.52l1.06-1.27c8.63,7.21,17.45,14.45,26.22,21.5Z"/><path class="cls-1" d="M484.33,122.9c-8.72-7.14-17.48-14.45-26.06-21.74l1.08-1.26c8.57,7.28,17.32,14.59,26,21.72Z"/><path class="cls-1" d="M502.9,202.6q-2.69,0-5.37-.15c-30.46-1.62-55.21-17-67.89-42.1l-1.91-3.78,3.43-2.49c25.89-18.78,56.43-28.94,86.11-28.73,31.47.33,57.79,12.94,72.23,34.61l2.34,3.5-3.07,2.88C564.34,189.29,532.62,202.6,502.9,202.6Zm-62.32-43c11.55,19.63,32.26,31.55,57.5,32.89h0c27.32,1.48,57.15-9.84,80.66-30.5-13-16.76-35.2-26.44-61.55-26.72h-1C490.33,135.29,463.67,143.89,440.58,159.62Z"/><path class="cls-1" d="M563.6,180.81l-1.6-.44c3.16-11.45,6.14-23.1,8.85-34.62l1.61.38C569.75,157.67,566.77,169.34,563.6,180.81Z"/><path class="cls-1" d="M556.2,180.66l-1.6-.45c3.18-11.37,6.19-23,8.93-34.46l1.61.39C562.39,157.66,559.38,169.27,556.2,180.66Z"/><path class="cls-1" d="M547.86,183.81l-1.59-.46c4.3-15,8.26-30.21,11.77-45.3l1.62.38C556.14,153.55,552.17,168.81,547.86,183.81Z"/><path class="cls-1" d="M539.22,187.88l-1.59-.47c4.81-16.24,9.21-32.76,13.07-49.1l1.61.38C548.45,155.06,544,171.61,539.22,187.88Z"/><path class="cls-1" d="M531.21,189.72l-1.59-.48c5.08-16.76,9.71-33.83,13.76-50.74l1.61.39C540.93,155.82,536.29,172.92,531.21,189.72Z"/><path class="cls-1" d="M522.29,194.44l-1.58-.5c6.57-21,12.41-42.39,17.36-63.57l1.62.38C534.72,152,528.87,173.4,522.29,194.44Z"/><path class="cls-1" d="M515.51,192.25l-1.58-.5c5.89-18.74,11.2-37.82,15.79-56.71l1.61.39C526.73,154.36,521.41,173.48,515.51,192.25Z"/><path class="cls-1" d="M507,195.64l-1.58-.51c6.4-19.82,12.16-40,17.1-60.08l1.61.4C519.14,155.53,513.38,175.78,507,195.64Z"/><path class="cls-1" d="M500.13,193.69l-1.58-.51C504.8,174,510.43,154.39,515.28,135l1.61.4C512,154.82,506.39,174.44,500.13,193.69Z"/><path class="cls-1" d="M492.27,194.94l-1.57-.52c7-21.15,13.24-42.71,18.54-64.05l1.61.4C505.53,152.15,499.28,173.74,492.27,194.94Z"/><path class="cls-1" d="M486.15,190.91l-1.57-.52c6.09-18.44,11.61-37.22,16.4-55.83l1.61.41C497.79,153.62,492.26,172.44,486.15,190.91Z"/><path class="cls-1" d="M479.33,189.09l-1.57-.52c6-17.9,11.37-36.16,16.1-54.26l1.6.42C490.72,152.86,485.3,171.15,479.33,189.09Z"/><path class="cls-1" d="M472,188.67l-1.57-.53c5.66-16.8,10.84-33.91,15.39-50.83l1.6.43C482.91,154.7,477.72,171.84,472,188.67Z"/><path class="cls-1" d="M465.86,185.06l-1.57-.53c5.25-15.58,10.09-31.48,14.4-47.24l1.6.44C476,153.52,471.12,169.45,465.86,185.06Z"/><path class="cls-1" d="M459.23,182.83l-1.57-.53c5-14.71,9.59-29.67,13.71-44.47l1.6.44C468.84,153.1,464.21,168.09,459.23,182.83Z"/><path class="cls-1" d="M453.76,177.19l-1.57-.53c4-11.92,7.77-24.06,11.22-36.07l1.59.46C461.55,153.09,457.77,165.25,453.76,177.19Z"/><path class="cls-1" d="M446.67,176.44l-1.57-.53c4-11.85,7.83-23.93,11.3-35.91l1.59.46C454.51,152.46,450.7,164.56,446.67,176.44Z"/><path class="cls-1" d="M414.66,263.31a101.79,101.79,0,0,1-18.75-1.7c-29.79-5.53-52.32-23.89-61.8-50.36l-1.43-4,3.71-2c27.72-15.27,59-21.41,88.17-17.27,30.86,4.45,55.24,20.35,66.89,43.64l1.89,3.77-3.41,2.48C467.23,254.33,440.19,263.31,414.66,263.31ZM345,211.88c9,20.91,28,35.37,52.68,39.95h0c26.62,5,57.25-2.3,82.76-19.54C469.64,214,449,201.52,423.15,197.8,397.47,194.14,369.9,199.15,345,211.88Z"/><path class="cls-1" d="M463.49,248.79l-1.54-.63c4.46-10.89,8.75-22,12.76-33l1.56.57C472.25,226.76,468,237.88,463.49,248.79Z"/><path class="cls-1" d="M456.22,247.68l-1.53-.63c4.48-10.84,8.79-21.89,12.82-32.85l1.56.57C465,225.75,460.71,236.82,456.22,247.68Z"/><path class="cls-1" d="M447.66,249.69l-1.53-.64c6-14.25,11.69-28.78,16.9-43.18l1.56.56C459.37,220.86,453.68,235.41,447.66,249.69Z"/><path class="cls-1" d="M438.68,252.59l-1.52-.66c6.65-15.43,12.92-31.16,18.62-46.77l1.56.57C451.63,221.37,445.35,237.13,438.68,252.59Z"/><path class="cls-1" d="M430.59,253.36l-1.52-.66c7-15.94,13.54-32.19,19.5-48.32l1.55.58C444.16,221.11,437.59,237.4,430.59,253.36Z"/><path class="cls-1" d="M421.26,256.87l-1.51-.68c8.94-19.9,17.2-40.27,24.55-60.53l1.56.57C438.5,216.52,430.22,236.93,421.26,256.87Z"/><path class="cls-1" d="M414.86,253.83l-1.51-.68c8-17.76,15.48-35.92,22.21-54l1.55.58C430.36,217.85,422.88,236,414.86,253.83Z"/><path class="cls-1" d="M406.05,256.07l-1.51-.69c8.64-18.77,16.69-38,23.9-57.14l1.55.59C422.77,218,414.71,237.27,406.05,256.07Z"/><path class="cls-1" d="M399.56,253.26l-1.51-.7c8.42-18.2,16.26-36.81,23.32-55.32l1.55.59C415.86,216.38,408,235,399.56,253.26Z"/><path class="cls-1" d="M391.68,253.48l-1.5-.71c9.39-20,18.07-40.49,25.8-60.91l1.55.59C409.78,212.91,401.08,233.44,391.68,253.48Z"/><path class="cls-1" d="M386.14,248.71l-1.5-.7c8.17-17.44,15.83-35.3,22.74-53.08l1.54.6C402,213.34,394.33,231.24,386.14,248.71Z"/><path class="cls-1" d="M379.64,246l-1.5-.71c8-17,15.48-34.31,22.26-51.56l1.54.61C395.15,211.65,387.65,229,379.64,246Z"/><path class="cls-1" d="M372.53,244.68,371,244c7.56-15.89,14.68-32.13,21.16-48.28l1.54.62C387.23,212.49,380.1,228.76,372.53,244.68Z"/><path class="cls-1" d="M366.86,240.31l-1.5-.71c7-14.76,13.67-29.85,19.77-44.86l1.54.63C380.57,210.4,373.9,225.52,366.86,240.31Z"/><path class="cls-1" d="M360.6,237.25l-1.5-.72c6.64-13.91,13-28.11,18.76-42.22l1.53.63C373.58,209.08,367.26,223.32,360.6,237.25Z"/><path class="cls-1" d="M355.89,231l-1.5-.71c5.36-11.3,10.51-22.82,15.32-34.24l1.53.64C366.42,208.11,361.26,219.66,355.89,231Z"/><path class="cls-1" d="M349,229.32l-1.5-.72c5.39-11.25,10.56-22.71,15.39-34.07l1.53.65C359.58,206.56,354.4,218,349,229.32Z"/><path class="cls-1" d="M387,194.63l-2.38-3.51c-14.5-21.45-17.76-49.8-8.94-77.78,8.45-26.58,26.6-49.71,51.09-65.14l3.6-2.27,2.8,3.2c18.41,21.07,24.51,49,16.74,76.67-7.94,28.47-30,53.53-59.07,67ZM428.42,59c-20.66,14.12-35.94,34.33-43.26,57.33-7.41,23.48-5.41,47.11,5.39,65.56,24.51-12.66,43-34.36,49.76-58.78h0C446.78,100.18,442.43,77.07,428.42,59Z"/><path class="cls-1" d="M441.56,70.5c-10.58-1-21.24-2.22-31.67-3.67l.23-1.64c10.41,1.45,21,2.68,31.6,3.66Z"/><path class="cls-1" d="M439.79,77c-10.59-1-21.27-2.32-31.74-3.81l.23-1.64c10.45,1.49,21.1,2.77,31.67,3.81Z"/><path class="cls-1" d="M441.09,83.9c-14-1.37-28.13-3.17-41.94-5.34l.26-1.64c13.77,2.17,27.85,4,41.84,5.33Z"/><path class="cls-1" d="M443.31,90.86C428,89.39,412.57,87.41,397.5,85l.27-1.64c15,2.43,30.42,4.4,45.71,5.88Z"/><path class="cls-1" d="M443.48,97.65c-16-1.56-32-3.67-47.7-6.26l.27-1.64c15.65,2.58,31.66,4.69,47.59,6.24Z"/><path class="cls-1" d="M446.44,104.73c-20.19-1.93-40.41-4.7-60.1-8.25l.29-1.63c19.65,3.54,39.82,6.31,60,8.23Z"/><path class="cls-1" d="M442.78,111.18c-18.12-1.85-36.29-4.38-54-7.54l.29-1.63c17.68,3.14,35.81,5.67,53.89,7.52Z"/><path class="cls-1" d="M444.53,118.18c-19.36-2-38.76-4.69-57.67-8.13l.3-1.63c18.87,3.43,38.23,6.16,57.54,8.11Z"/><path class="cls-1" d="M441.09,124.67c-18.85-2-37.76-4.79-56.19-8.21l.3-1.63c18.4,3.41,37.26,6.17,56.07,8.19Z"/><path class="cls-1" d="M440.79,131.5C419.9,129.22,399,126,378.56,122l.32-1.63c20.35,4,41.25,7.15,62.09,9.43Z"/><path class="cls-1" d="M435.27,137.75c-18.32-2.16-36.69-5-54.62-8.48l.31-1.63c17.89,3.46,36.22,6.31,54.5,8.47Z"/><path class="cls-1" d="M431.91,144.23C414,142,396,139.14,378.5,135.67l.32-1.63c17.49,3.45,35.42,6.32,53.29,8.54Z"/><path class="cls-1" d="M429.94,150.89c-16.92-2.16-33.88-4.91-50.43-8.16l.32-1.63c16.51,3.25,33.43,6,50.32,8.14Z"/><path class="cls-1" d="M424.74,157.12c-15.78-2.14-31.64-4.8-47.13-7.9l.33-1.63c15.46,3.09,31.28,5.75,47,7.88Z"/><path class="cls-1" d="M420.92,163.53c-15-2.12-30-4.71-44.66-7.68l.33-1.63c14.64,3,29.64,5.55,44.56,7.67Z"/><path class="cls-1" d="M413.59,169.39c-12.17-1.86-24.43-4-36.44-6.46l.33-1.63c12,2.42,24.21,4.59,36.36,6.44Z"/><path class="cls-1" d="M411.23,176c-12.2-1.91-24.48-4.14-36.51-6.62l.33-1.62c12,2.47,24.26,4.69,36.43,6.6Z"/><path class="cls-1" d="M287.73,239.67l-1.92-3.78c-11.71-23.07-11.53-51.56.51-78.15a118.33,118.33,0,0,1,58-57.88l3.85-1.79,2.37,3.53c15.6,23.21,18.29,51.62,7.37,77.93-11.19,27.14-35.93,49.14-66.2,58.85Zm56.91-128.88a108.06,108.06,0,0,0-49.26,51.06c-10.1,22.32-11,46-2.52,65.63,25.62-9.43,46.34-28.52,55.91-51.75h0C357.82,153.9,356.28,130.48,344.64,110.79Z"/><path class="cls-1" d="M356.24,123.84c-10.28-2.35-20.61-5-30.71-7.74l.44-1.6c10.07,2.78,20.38,5.38,30.63,7.73Z"/><path class="cls-1" d="M353.73,130.07c-10.3-2.41-20.65-5.06-30.75-7.89l.45-1.6c10.08,2.82,20.4,5.47,30.68,7.87Z"/><path class="cls-1" d="M354.19,137c-13.62-3.18-27.29-6.78-40.61-10.71l.47-1.59c13.29,3.92,26.92,7.52,40.51,10.69Z"/><path class="cls-1" d="M355.55,144.19c-14.91-3.46-29.84-7.41-44.36-11.75l.48-1.59c14.49,4.33,29.38,8.28,44.26,11.72Z"/><path class="cls-1" d="M354.92,150.92c-15.51-3.62-31-7.77-46.17-12.35l.48-1.59c15.09,4.57,30.59,8.72,46.06,12.32Z"/><path class="cls-1" d="M357,158.3c-19.63-4.53-39.19-9.88-58.14-15.92l.5-1.58c18.91,6,38.42,11.36,58,15.88Z"/><path class="cls-1" d="M352.62,164.2c-17.6-4.17-35.17-9-52.24-14.41l.5-1.58c17,5.38,34.57,10.22,52.12,14.38Z"/><path class="cls-1" d="M353.52,171.36c-18.81-4.44-37.57-9.65-55.77-15.47l.51-1.58c18.16,5.81,36.89,11,55.65,15.43Z"/><path class="cls-1" d="M349.36,177.33c-18.31-4.44-36.59-9.6-54.32-15.34l.51-1.58c17.69,5.72,35.93,10.87,54.2,15.31Z"/><path class="cls-1" d="M348.26,184c-20.33-5-40.55-10.8-60.12-17.34l.52-1.57c19.52,6.52,39.7,12.34,60,17.3Z"/><path class="cls-1" d="M342.08,189.51c-17.78-4.5-35.53-9.68-52.75-15.4l.52-1.57c17.18,5.7,34.89,10.87,52.63,15.36Z"/><path class="cls-1" d="M338,195.49c-17.38-4.5-34.72-9.65-51.55-15.3l.53-1.57c16.8,5.64,34.1,10.78,51.44,15.27Z"/><path class="cls-1" d="M335.28,201.83c-16.4-4.31-32.77-9.2-48.67-14.52l.53-1.57c15.86,5.31,32.2,10.19,48.56,14.49Z"/><path class="cls-1" d="M329.42,207.33c-15.3-4.15-30.6-8.81-45.46-13.84l.53-1.57c14.83,5,30.1,9.66,45.37,13.81Z"/><path class="cls-1" d="M324.89,213.18c-14.49-4-29-8.49-43.06-13.3l.53-1.57c14.06,4.8,28.51,9.26,43,13.27Z"/><path class="cls-1" d="M317,218.05c-11.79-3.4-23.6-7.11-35.11-11l.53-1.57c11.49,3.91,23.28,7.61,35,11Z"/><path class="cls-1" d="M313.86,224.28c-11.82-3.46-23.65-7.22-35.17-11.19l.54-1.57c11.49,4,23.3,7.72,35.1,11.17Z"/><path class="cls-1" d="M321.84,311.9A106,106,0,0,1,289.3,307c-28.73-9.21-48.76-30.21-54.94-57.62l-.93-4.14,3.93-1.58c29.19-11.7,60.8-13.85,89-6.06,29.85,8.31,52,27.14,60.68,51.68l1.41,4-3.69,2A131.41,131.41,0,0,1,321.84,311.9Zm-76.7-60.59c6.4,21.85,23.39,38.55,47.2,46.18h0c25.61,8.26,56.62,4.92,83.77-8.88-8.54-19.51-27.38-34.49-52.39-41.45C298.91,240.31,271.16,241.8,245.14,251.31Z"/><path class="cls-1" d="M357.47,302.76,356,302c5.68-10.22,11.22-20.66,16.47-31l1.48.75C368.71,282.06,363.16,292.53,357.47,302.76Z"/><path class="cls-1" d="M350.45,300.74l-1.45-.81c5.71-10.2,11.27-20.59,16.52-30.89l1.48.75C361.74,280.11,356.17,290.53,350.45,300.74Z"/><path class="cls-1" d="M341.77,301.65l-1.44-.82c7.6-13.34,14.92-27,21.76-40.61l1.48.74C356.72,274.6,349.38,288.29,341.77,301.65Z"/><path class="cls-1" d="M332.58,303.38l-1.43-.83c8.38-14.43,16.42-29.22,23.89-44l1.48.75C349,274.11,341,288.92,332.58,303.38Z"/><path class="cls-1" d="M324.52,303.14l-1.43-.84c8.77-14.89,17.16-30.16,24.95-45.38l1.48.75C341.71,272.92,333.3,288.22,324.52,303.14Z"/><path class="cls-1" d="M314.91,305.44l-1.42-.86c11.17-18.57,21.73-37.7,31.38-56.85l1.48.74C336.68,267.66,326.1,286.83,314.91,305.44Z"/><path class="cls-1" d="M308.95,301.62l-1.42-.86c10-16.59,19.53-33.64,28.3-50.66l1.47.76C328.52,267.92,319,285,308.95,301.62Z"/><path class="cls-1" d="M300,302.74l-1.41-.87c10.76-17.52,21-35.55,30.35-53.59l1.47.76C321,267.12,310.79,285.19,300,302.74Z"/><path class="cls-1" d="M293.94,299.14l-1.41-.87c10.47-17,20.41-34.43,29.56-51.88l1.47.77C314.39,264.65,304.43,282.14,293.94,299.14Z"/><path class="cls-1" d="M286.14,298.37l-1.41-.88c11.65-18.65,22.64-37.87,32.68-57.11l1.47.77C308.83,260.43,297.81,279.68,286.14,298.37Z"/><path class="cls-1" d="M281.25,293l-1.41-.88c10.14-16.27,19.81-33,28.73-49.74l1.46.78C301.1,259.89,291.41,276.65,281.25,293Z"/><path class="cls-1" d="M275.16,289.49l-1.41-.88c9.92-15.83,19.37-32.09,28.09-48.31l1.46.78C294.56,257.33,285.1,273.62,275.16,289.49Z"/><path class="cls-1" d="M268.3,287.26l-1.4-.88c9.35-14.81,18.31-30,26.62-45.2l1.45.8C286.65,257.19,277.68,272.42,268.3,287.26Z"/><path class="cls-1" d="M263.24,282.22l-1.4-.88c8.69-13.76,17-27.88,24.85-42l1.45.8C280.32,254.28,271.95,268.44,263.24,282.22Z"/><path class="cls-1" d="M257.43,278.41l-1.4-.89c8.2-12.94,16.12-26.23,23.54-39.51l1.45.81C273.58,252.13,265.65,265.44,257.43,278.41Z"/><path class="cls-1" d="M253.53,271.6l-1.4-.88c6.62-10.5,13.08-21.28,19.2-32l1.44.82C266.64,250.28,260.16,261.08,253.53,271.6Z"/><path class="cls-1" d="M246.93,269.1l-1.4-.89c6.65-10.46,13.12-21.18,19.25-31.86l1.44.83C260.08,247.88,253.59,258.62,246.93,269.1Z"/><path class="cls-1" d="M224.7,348.82c-16.57,0-32.61-3.28-46.67-9.85-27.3-12.68-44.56-36-47.34-63.93l-.42-4.22,4.1-1.09c30.29-8,61.82-6.25,88.75,5,28.45,11.95,48,33.38,53.66,58.8l.92,4.12-3.92,1.57A132.33,132.33,0,0,1,224.7,348.82ZM141.16,278.3c3.68,22.47,18.45,41.13,41.07,51.65h0c24.3,11.35,55.31,11.89,83.76,1.6-6.08-20.42-22.88-37.63-46.72-47.64C195.62,274,168,272.07,141.16,278.3Z"/><path class="cls-1" d="M245.92,343.24l-1.34-1c6.85-9.44,13.58-19.1,20-28.73l1.38.92C259.53,324.1,252.79,333.79,245.92,343.24Z"/><path class="cls-1" d="M239.23,340.37l-1.34-1c6.86-9.39,13.6-19,20-28.58l1.38.92C252.86,321.33,246.11,331,239.23,340.37Z"/><path class="cls-1" d="M230.56,340.19l-1.33-1c9.11-12.28,18-24.91,26.38-37.56l1.38.92C248.58,315.23,239.68,327.89,230.56,340.19Z"/><path class="cls-1" d="M221.28,340.77l-1.32-1c10-13.27,19.75-26.94,28.89-40.62l1.38.92C241.06,313.78,231.32,327.47,221.28,340.77Z"/><path class="cls-1" d="M213.34,339.53l-1.32-1c10.45-13.67,20.58-27.77,30.12-41.91l1.38.93C234,311.7,223.8,325.83,213.34,339.53Z"/><path class="cls-1" d="M203.56,340.61l-1.31-1c13.29-17,26-34.7,37.86-52.49l1.38.92C229.64,305.84,216.88,323.54,203.56,340.61Z"/><path class="cls-1" d="M198.14,336.09l-1.31-1c11.89-15.21,23.36-30.94,34.08-46.73l1.37.93C221.54,305.1,210.05,320.85,198.14,336.09Z"/><path class="cls-1" d="M189.16,336.1l-1.3-1c12.76-16,25-32.67,36.47-49.4l1.37.94C214.23,303.37,201.94,320,189.16,336.1Z"/><path class="cls-1" d="M183.6,331.78l-1.3-1c12.4-15.54,24.34-31.62,35.48-47.8l1.37.94C208,300.1,196,316.21,183.6,331.78Z"/><path class="cls-1" d="M176,330.05l-1.29-1c13.77-17.06,27-34.75,39.21-52.6l1.37.94C203,295.23,189.78,313,176,330.05Z"/><path class="cls-1" d="M171.8,324.07l-1.29-1c12-14.89,23.59-30.3,34.42-45.79l1.36.95C195.43,293.72,183.83,309.15,171.8,324.07Z"/><path class="cls-1" d="M166.2,319.88l-1.29-1c11.71-14.46,23-29.42,33.61-44.45l1.36,1C189.26,290.41,177.93,305.39,166.2,319.88Z"/><path class="cls-1" d="M159.69,316.83l-1.29-1c11-13.54,21.74-27.52,31.8-41.55l1.35,1C181.48,289.26,170.76,303.27,159.69,316.83Z"/><path class="cls-1" d="M155.3,311.21l-1.29-1c10.27-12.58,20.25-25.57,29.66-38.6l1.34,1C175.58,285.59,165.58,298.6,155.3,311.21Z"/><path class="cls-1" d="M150,306.71l-1.28-1c9.68-11.82,19.13-24,28.07-36.29l1.34,1C169.17,282.63,159.71,294.86,150,306.71Z"/><path class="cls-1" d="M147,299.47l-1.29-1c7.84-9.63,15.54-19.52,22.87-29.41l1.33,1C162.55,279.91,154.84,289.83,147,299.47Z"/><path class="cls-1" d="M140.75,296.18l-1.28-1.05c7.86-9.57,15.56-19.41,22.91-29.24l1.33,1C156.35,276.73,148.62,286.59,140.75,296.18Z"/><path class="cls-1" d="M185.42,271.92l-1.44-4c-8.8-24.32-5.2-52.55,9.88-77.45a116.89,116.89,0,0,1,64.2-50.18l4-1.3,1.92,3.79c12.62,25,11.88,53.43-2,78.15-14.27,25.51-41.34,44.27-72.43,50.19ZM257,151.19a106.7,106.7,0,0,0-54.62,44.46C189.7,216.55,186,239.92,192,260.45c26.42-6.2,49.14-22.56,61.34-44.37h0C264.86,195.57,266.12,172.16,257,151.19Z"/><path class="cls-1" d="M266.9,165.56c-9.83-3.62-19.71-7.49-29.35-11.52l.64-1.53c9.62,4,19.47,7.89,29.28,11.49Z"/><path class="cls-1" d="M263.68,171.41c-9.86-3.67-19.75-7.6-29.38-11.66l.64-1.53c9.61,4.06,19.48,8,29.32,11.64Z"/><path class="cls-1" d="M263.32,178.35c-13.09-4.87-26.13-10.15-38.77-15.69l.67-1.52c12.61,5.53,25.62,10.8,38.68,15.65Z"/><path class="cls-1" d="M263.81,185.63c-14.28-5.29-28.53-11.07-42.35-17.18l.67-1.52c13.79,6.1,28,11.87,42.25,17.14Z"/><path class="cls-1" d="M262.38,192.22c-14.9-5.54-29.72-11.6-44.07-18l.68-1.52c14.31,6.39,29.1,12.43,44,18Z"/><path class="cls-1" d="M263.54,199.8c-18.84-7-37.5-14.7-55.45-23l.7-1.51c17.91,8.3,36.53,16,55.33,23Z"/><path class="cls-1" d="M258.54,205.1c-16.88-6.34-33.64-13.34-49.82-20.79l.69-1.51c16.14,7.43,32.87,14.41,49.71,20.74Z"/><path class="cls-1" d="M258.57,212.3c-18-6.76-35.93-14.25-53.19-22.27l.7-1.5c17.22,8,35.07,15.47,53.07,22.22Z"/><path class="cls-1" d="M253.76,217.7c-17.55-6.69-35-14.08-51.77-22l.7-1.5c16.77,7.86,34.15,15.23,51.66,21.91Z"/><path class="cls-1" d="M251.87,224.23c-19.46-7.46-38.73-15.75-57.26-24.64l.72-1.5c18.5,8.88,37.72,17.15,57.14,24.59Z"/><path class="cls-1" d="M245.12,228.88c-17-6.68-33.91-14-50.23-21.8l.72-1.5c16.28,7.77,33.14,15.09,50.12,21.75Z"/><path class="cls-1" d="M240.38,234.3c-16.62-6.63-33.13-13.88-49.06-21.55l.72-1.49c15.9,7.66,32.37,14.89,49,21.51Z"/><path class="cls-1" d="M236.94,240.25c-15.67-6.31-31.25-13.18-46.32-20.42l.72-1.49c15,7.22,30.58,14.08,46.22,20.38Z"/><path class="cls-1" d="M230.5,245c-14.6-6-29.15-12.51-43.24-19.33l.72-1.49c14.06,6.81,28.58,13.3,43.15,19.3Z"/><path class="cls-1" d="M225.33,250.21c-13.83-5.78-27.6-12-40.93-18.5l.73-1.49c13.31,6.48,27,12.69,40.84,18.46Z"/><path class="cls-1" d="M216.93,254.07c-11.21-4.82-22.44-10-33.36-15.27l.73-1.49c10.9,5.3,22.1,10.42,33.29,15.24Z"/><path class="cls-1" d="M213.11,259.86c-11.26-4.89-22.5-10.08-33.41-15.43l.73-1.49c10.88,5.34,22.1,10.52,33.33,15.4Z"/><path class="cls-1" d="M79.25,291.28l-.94-4.14c-5.74-25.2,1.27-52.78,19.24-75.64a116.13,116.13,0,0,1,69.59-41.87l4.18-.79,1.43,4c9.43,26.32,5.26,54.48-11.47,77.27C144.08,273.66,115,288.95,83.48,291Zm85.48-111a106,106,0,0,0-59.36,37.35c-15.08,19.2-21.59,41.94-18.18,63,26.91-2.91,51.37-16.34,66.07-36.46h0C167.13,225.33,171.21,202.26,164.72,180.31Z"/><path class="cls-1" d="M172.8,195.79c-9.28-4.81-18.57-9.88-27.6-15.07l.83-1.44c9,5.17,18.27,10.23,27.53,15Z"/><path class="cls-1" d="M168.92,201.2c-9.32-4.88-18.62-10-27.62-15.21l.83-1.43c9,5.2,18.25,10.31,27.55,15.18Z"/><path class="cls-1" d="M167.72,208c-12.33-6.45-24.58-13.3-36.41-20.36l.85-1.43c11.8,7,24,13.88,36.33,20.32Z"/><path class="cls-1" d="M167.32,215.32c-13.49-7-26.87-14.53-39.77-22.28l.86-1.42c12.87,7.74,26.22,15.22,39.68,22.24Z"/><path class="cls-1" d="M165.1,221.68c-14-7.34-28-15.18-41.37-23.3l.86-1.42c13.37,8.11,27.26,15.93,41.28,23.25Z"/><path class="cls-1" d="M165.33,229.33c-17.78-9.23-35.28-19.22-52-29.68l.88-1.41c16.71,10.44,34.17,20.4,51.91,29.62Z"/><path class="cls-1" d="M159.75,234c-15.92-8.39-31.65-17.4-46.73-26.78l.87-1.41c15.05,9.36,30.74,18.34,46.63,26.72Z"/><path class="cls-1" d="M158.9,241.13c-17-8.94-33.79-18.58-49.88-28.65l.88-1.41c16.06,10.05,32.8,19.67,49.77,28.59Z"/><path class="cls-1" d="M153.49,245.89c-16.55-8.81-32.88-18.29-48.53-28.17l.88-1.4c15.62,9.85,31.91,19.31,48.43,28.11Z"/><path class="cls-1" d="M150.83,252.13c-18.35-9.81-36.4-20.41-53.64-31.51l.9-1.4c17.21,11.08,35.22,21.65,53.53,31.44Z"/><path class="cls-1" d="M143.6,255.91c-16-8.74-31.85-18.1-47-27.82l.89-1.4c15.15,9.7,30.94,19,46.94,27.76Z"/><path class="cls-1" d="M138.25,260.71c-15.63-8.62-31.08-17.85-45.93-27.42l.9-1.39c14.81,9.55,30.23,18.76,45.82,27.37Z"/><path class="cls-1" d="M134.12,266.18c-14.73-8.19-29.32-16.93-43.35-26l.9-1.39c14,9,28.55,17.73,43.25,25.91Z"/><path class="cls-1" d="M127.17,270.08c-13.72-7.76-27.33-16-40.44-24.51l.9-1.39c13.09,8.48,26.66,16.71,40.35,24.45Z"/><path class="cls-1" d="M121.42,274.64c-13-7.43-25.83-15.3-38.26-23.39l.9-1.39c12.4,8.07,25.25,15.93,38.18,23.34Z"/><path class="cls-1" d="M112.64,277.44c-10.51-6.17-21-12.64-31.17-19.25l.9-1.39c10.15,6.59,20.61,13.06,31.1,19.21Z"/><path class="cls-1" d="M108.15,282.72C97.61,276.49,87.12,270,77,263.3l.91-1.39C88,268.56,98.48,275.08,109,281.29Z"/><path class="cls-1" d="M6.41,321.36,0,313.75c22.52-19,52.76-30.53,85.12-32.48l.6,9.93C55.48,293,27.31,303.73,6.41,321.36Z"/></g></g></svg>