<?xml version="1.0" encoding="utf-8"?>
<!-- Generator: Adobe Illustrator 21.1.0, SVG Export Plug-In . SVG Version: 6.00 Build 0)  -->
<svg version="1.1" id="Lager_1" xmlns="http://www.w3.org/2000/svg" xmlns:xlink="http://www.w3.org/1999/xlink" x="0px" y="0px"
	 viewBox="0 0 355.1 230.3" style="enable-background:new 0 0 355.1 230.3;" xml:space="preserve">
<style type="text/css">
	.st0{fill:#EE4036;}
	.st1{fill:none;stroke:#404041;stroke-width:6;stroke-miterlimit:10;}
	.st2{fill:none;stroke:#404041;stroke-miterlimit:10;}
</style>
<g>
	<ellipse transform="matrix(0.9848 -0.1734 0.1734 0.9848 -7.747 45.2019)" class="st0" cx="254.8" cy="66.9" rx="10" ry="10"/>
	<ellipse transform="matrix(0.9848 -0.1734 0.1734 0.9848 -6.5998 49.2263)" class="st0" cx="278.4" cy="62.4" rx="10" ry="10"/>
	<ellipse transform="matrix(0.9848 -0.1734 0.1734 0.9848 -3.6522 46.2076)" class="st0" cx="262.6" cy="44" rx="10" ry="10"/>
	<g>
		<path class="st1" d="M277.1,120.6c-19.5,2.2-38.2-4-50.6-15.1c10.5-11.4,25.9-19.2,44-21.2c18.1-1.9,35.5,2.3,49.7,10.8
			C312.1,108.3,296.6,118.4,277.1,120.6z"/>
		<path class="st2" d="M307.2,88.1c1.5,5.9,3,11.8,4.6,17.8"/>
		<path class="st2" d="M302.7,88.7c1.4,5.9,2.9,11.9,4.4,17.8"/>
		<path class="st2" d="M297.4,85.3c1.8,7.9,3.6,15.7,5.6,23.6"/>
		<path class="st2" d="M293.1,86c1.9,8.6,3.8,17.1,5.9,25.7"/>
		<path class="st2" d="M288.7,86.7c1.9,8.9,3.8,17.8,5.9,26.7"/>
		<path class="st2" d="M283.5,82.9c2.2,11.3,4.6,22.5,7.1,33.7"/>
		<path class="st2" d="M279.6,85.9c1.9,10.1,3.9,20.2,6.1,30.3"/>
		<path class="st2" d="M275.3,86.5c1.9,10.8,4,21.5,6.3,32.3"/>
		<path class="st2" d="M270.9,87c1.8,10.5,3.7,21,5.8,31.4"/>
		<path class="st2" d="M266.2,85c1.8,11.6,3.9,23.2,6.1,34.8"/>
		<path class="st2" d="M262.2,87.8c1.6,10.2,3.2,20.4,5.1,30.5"/>
		<path class="st2" d="M257.8,88.1c1.4,10,3,19.9,4.7,29.9"/>
		<path class="st2" d="M253.7,90.3c1.3,9.4,2.7,18.8,4.2,28.1"/>
		<path class="st2" d="M249.3,90.8c1.1,8.8,2.4,17.5,3.7,26.3"/>
		<path class="st2" d="M244.9,91.7c1,8.3,2.1,16.6,3.3,24.9"/>
		<path class="st2" d="M240.7,93.8c0.8,6.8,1.6,13.5,2.5,20.3"/>
		<path class="st2" d="M236.3,94c0.7,6.8,1.5,13.6,2.3,20.3"/>
	</g>
	<g>
		<path class="st1" d="M232.5,77.9c-6.6,16-21.2,28.4-38.1,33.8c-6.7-13.2-6.5-29.3,0.4-44.5c7-15.3,19.1-26.7,33.5-33.4
			C236.5,46,239.1,61.9,232.5,77.9z"/>
		<path class="st2" d="M215.8,40.3c6.1,1.7,12.2,3.2,18.5,4.7"/>
		<path class="st2" d="M214.3,44c6.1,1.7,12.3,3.3,18.5,4.8"/>
		<path class="st2" d="M208.6,46.5c8,2.4,16.2,4.5,24.5,6.5"/>
		<path class="st2" d="M207.2,50.2c8.7,2.6,17.6,5,26.7,7.1"/>
		<path class="st2" d="M205.7,53.9c9.1,2.7,18.4,5.2,27.8,7.4"/>
		<path class="st2" d="M199.8,56.2c11.4,3.6,23,6.8,35,9.6"/>
		<path class="st2" d="M200.7,60.7c10.2,3.2,20.7,6.1,31.5,8.7"/>
		<path class="st2" d="M199.1,64.4c10.9,3.5,22.1,6.6,33.6,9.3"/>
		<path class="st2" d="M197.5,68c10.6,3.4,21.6,6.5,32.7,9.2"/>
		<path class="st2" d="M193.3,70.9c11.7,3.9,23.8,7.4,36.2,10.4"/>
		<path class="st2" d="M194,75.3c10.3,3.4,20.9,6.5,31.8,9.3"/>
		<path class="st2" d="M192.3,79c10.1,3.4,20.5,6.5,31.1,9.2"/>
		<path class="st2" d="M192.4,83.3c9.6,3.2,19.3,6.1,29.3,8.7"/>
		<path class="st2" d="M190.8,87c8.9,3,18.1,5.8,27.4,8.3"/>
		<path class="st2" d="M189.5,90.9c8.5,2.9,17.1,5.6,25.9,8"/>
		<path class="st2" d="M189.5,95.2c6.9,2.4,14,4.6,21.2,6.6"/>
		<path class="st2" d="M187.6,98.9c6.9,2.4,14,4.6,21.2,6.7"/>
	</g>
	<g>
		<path class="st1" d="M194.8,153.1c-17.5-5.6-27.9-18.2-31.1-32.5c16.3-6.5,34.6-8.3,51.8-3.5c17.1,4.8,29.6,15.3,34.6,29.3
			C232.9,155.7,212.2,158.7,194.8,153.1z"/>
		<path class="st2" d="M244.5,134.4c-3.2,6.3-6.5,12.5-9.9,18.7"/>
		<path class="st2" d="M240.3,133.3c-3.2,6.2-6.5,12.5-10,18.6"/>
		<path class="st2" d="M238.2,128c-4.1,8.2-8.5,16.4-13.1,24.5"/>
		<path class="st2" d="M233.9,127c-4.5,8.9-9.3,17.7-14.4,26.5"/>
		<path class="st2" d="M229.7,126c-4.7,9.2-9.7,18.3-15.1,27.4"/>
		<path class="st2" d="M227.8,120.4c-5.8,11.5-12.1,23-18.9,34.3"/>
		<path class="st2" d="M222.3,121.9c-5.3,10.3-11,20.5-17.1,30.6"/>
		<path class="st2" d="M218.2,120.8c-5.6,10.9-11.8,21.7-18.3,32.4"/>
		<path class="st2" d="M214.1,119.6c-5.5,10.5-11.5,21-17.8,31.3"/>
		<path class="st2" d="M211.2,116c-6,11.6-12.6,23.1-19.7,34.5"/>
		<path class="st2" d="M205.9,117.2c-5.4,10.1-11.2,20.1-17.3,30"/>
		<path class="st2" d="M201.8,116c-5.3,9.8-10.9,19.5-17,29.2"/>
		<path class="st2" d="M196.8,116.5c-5,9.2-10.4,18.3-16.1,27.3"/>
		<path class="st2" d="M192.7,115.4c-4.7,8.5-9.7,17-15,25.3"/>
		<path class="st2" d="M188.4,114.6c-4.5,8-9.2,16-14.2,23.8"/>
		<path class="st2" d="M183.4,115c-3.7,6.5-7.5,12.9-11.6,19.3"/>
		<path class="st2" d="M179.5,113.6c-3.7,6.4-7.6,12.9-11.6,19.2"/>
	</g>
	<g>
		<path class="st1" d="M128,172.5c-16.6-7.7-25.4-21.5-26.8-36.1c16.9-4.5,35.2-4,51.6,2.9c16.3,6.9,27.4,18.9,30.6,33.3
			C165.3,179.9,144.5,180.2,128,172.5z"/>
		<path class="st2" d="M179.4,160.2c-3.9,5.8-7.9,11.6-12.1,17.3"/>
		<path class="st2" d="M175.3,158.5c-3.9,5.8-7.9,11.5-12.1,17.2"/>
		<path class="st2" d="M173.9,153c-5.1,7.6-10.4,15.2-15.9,22.7"/>
		<path class="st2" d="M169.9,151.5c-5.5,8.3-11.3,16.4-17.4,24.5"/>
		<path class="st2" d="M165.8,150c-5.7,8.5-11.8,17-18.2,25.3"/>
		<path class="st2" d="M164.6,144.2c-7.1,10.7-14.7,21.3-22.8,31.7"/>
		<path class="st2" d="M159,145c-6.5,9.5-13.3,18.9-20.6,28.2"/>
		<path class="st2" d="M155.1,143.4c-6.9,10.1-14.2,20-22,29.8"/>
		<path class="st2" d="M151.1,141.7c-6.7,9.7-13.9,19.4-21.4,28.9"/>
		<path class="st2" d="M148.8,137.8c-7.4,10.7-15.3,21.3-23.7,31.8"/>
		<path class="st2" d="M143.4,138.3c-6.5,9.3-13.5,18.6-20.8,27.6"/>
		<path class="st2" d="M139.5,136.6c-6.4,9.1-13.2,18-20.3,26.8"/>
		<path class="st2" d="M134.5,136.5c-6.1,8.5-12.5,16.8-19.2,25.1"/>
		<path class="st2" d="M130.5,134.9c-5.7,7.9-11.6,15.6-17.9,23.3"/>
		<path class="st2" d="M126.4,133.6c-5.4,7.4-11,14.7-16.9,21.9"/>
		<path class="st2" d="M121.4,133.3c-4.4,6-9,11.9-13.8,17.8"/>
		<path class="st2" d="M117.7,131.5c-4.4,5.9-9,11.8-13.8,17.7"/>
	</g>
	<g>
		<path class="st1" d="M174.8,102.6c-8.4,15-24.3,25.5-41.6,28.8c-5-13.9-2.9-29.9,5.7-44.1c8.7-14.3,22.1-24.1,37.1-29
			C182.6,71.4,183.2,87.5,174.8,102.6z"/>
		<path class="st2" d="M162.8,63.3c5.8,2.4,11.7,4.7,17.7,6.9"/>
		<path class="st2" d="M160.9,66.7c5.8,2.5,11.7,4.8,17.7,7"/>
		<path class="st2" d="M155,68.5c7.6,3.3,15.4,6.5,23.4,9.5"/>
		<path class="st2" d="M153.1,71.9c8.3,3.7,16.8,7.1,25.5,10.4"/>
		<path class="st2" d="M151.2,75.4c8.6,3.9,17.5,7.5,26.5,10.8"/>
		<path class="st2" d="M145.1,77c10.8,5,21.9,9.6,33.4,13.9"/>
		<path class="st2" d="M145.5,81.5c9.7,4.5,19.7,8.7,30,12.5"/>
		<path class="st2" d="M143.4,85c10.4,4.8,21,9.3,32,13.4"/>
		<path class="st2" d="M141.4,88.4c10.1,4.7,20.5,9.1,31.2,13.2"/>
		<path class="st2" d="M137,90.7c11.1,5.3,22.6,10.3,34.5,14.8"/>
		<path class="st2" d="M137.1,95.2c9.8,4.7,19.9,9.1,30.3,13.1"/>
		<path class="st2" d="M135,98.7c9.6,4.6,19.4,8.9,29.6,13"/>
		<path class="st2" d="M134.6,102.9c9.1,4.4,18.4,8.5,27.9,12.3"/>
		<path class="st2" d="M132.5,106.4c8.5,4.1,17.2,8,26,11.6"/>
		<path class="st2" d="M130.8,110.1c8,3.9,16.2,7.6,24.7,11.1"/>
		<path class="st2" d="M130.3,114.4c6.6,3.2,13.3,6.3,20.1,9.2"/>
		<path class="st2" d="M128,117.8c6.6,3.2,13.3,6.3,20.1,9.3"/>
	</g>
	<g>
		<path class="st1" d="M114.2,119.9c-10.1,13.9-27.2,22.3-44.7,23.4c-3.3-14.4,0.8-30,11-43.1c10.3-13.1,24.8-21.2,40.2-24.2
			C125.7,89.9,124.4,106,114.2,119.9z"/>
		<path class="st2" d="M107.2,79.4c5.4,3.1,11,6.1,16.6,9.1"/>
		<path class="st2" d="M104.8,82.5c5.4,3.1,11,6.2,16.6,9.2"/>
		<path class="st2" d="M98.8,83.6c7.1,4.3,14.4,8.3,21.9,12.3"/>
		<path class="st2" d="M96.6,86.8c7.8,4.7,15.7,9.1,24,13.4"/>
		<path class="st2" d="M94.3,90c8.1,4.9,16.4,9.6,24.9,14"/>
		<path class="st2" d="M88,90.8c10.1,6.3,20.5,12.3,31.3,17.9"/>
		<path class="st2" d="M87.8,95.4c9.1,5.6,18.5,11,28.2,16.1"/>
		<path class="st2" d="M85.4,98.5c9.7,6.1,19.7,11.8,30,17.3"/>
		<path class="st2" d="M82.9,101.7c9.4,5.9,19.2,11.6,29.2,17"/>
		<path class="st2" d="M78.3,103.4c10.4,6.7,21.1,13,32.3,19"/>
		<path class="st2" d="M77.9,108c9.1,5.8,18.6,11.4,28.3,16.8"/>
		<path class="st2" d="M75.3,111.1c8.9,5.8,18.1,11.3,27.7,16.5"/>
		<path class="st2" d="M74.4,115.3c8.4,5.4,17.1,10.7,26.1,15.6"/>
		<path class="st2" d="M72,118.5c7.9,5.1,16,10,24.4,14.8"/>
		<path class="st2" d="M69.8,121.9c7.5,4.9,15.2,9.6,23,14.1"/>
		<path class="st2" d="M68.8,126.1c6.1,4,12.4,7.8,18.8,11.6"/>
		<path class="st2" d="M66.1,129.2c6.1,4,12.4,7.9,18.8,11.7"/>
	</g>
	<path class="st1" d="M21.3,162.3c12.7-10.8,30.2-17.7,49.6-18.9"/>
</g>
</svg>
