<?xml version="1.0" encoding="utf-8"?>
<!-- Generator: Adobe Illustrator 21.1.0, SVG Export Plug-In . SVG Version: 6.00 Build 0)  -->
<svg version="1.1" id="Lager_1" xmlns="http://www.w3.org/2000/svg" xmlns:xlink="http://www.w3.org/1999/xlink" x="0px" y="0px"
	 viewBox="0 0 546 221.3" style="enable-background:new 0 0 546 221.3;" xml:space="preserve">
<style type="text/css">
	.st0{fill:#FBFBFB;}
	.st1{fill:#171718;}
</style>
<path class="st0" d="M151.5,117.1c-0.5-1.3-1-2.6-1.4-3.9c-1.3-3.5-2.4-7-3.6-10.6c-1.2-3.4-2.6-6.5-3.5-10c0-0.2,0-0.3-0.1-0.4
	c-0.2-0.2-0.5-0.5-0.7-0.5c-0.2,0-0.5,0.3-0.6,0.5c-0.2,0.4-0.3,0.8-0.4,1.3c-0.1,0.8-0.1,1.5-0.3,2.2c-0.6,2-1.3,4-1.8,6.1
	c-0.3,1-0.6,1.9-1,2.9c-1.5,3.5-2.5,7-3.4,10.7c-0.2,1-0.7,1.9-1.3,2.8c-0.3,0.5-0.4,0.8,0,1.2c0.2,0.3,0.4,0.5,0.5,0.6
	c1.1-0.2,2-0.5,3-0.6h1.4c1.2-0.1,2.4-0.2,3.7-0.2c0.5,0,1,0.1,1.4,0.1c1.3,0,2.6-0.1,3.9-0.1h4.2C152,118,152,117.9,151.5,117.1z
	 M207.5,96.2c-0.2-0.5-0.7-1-0.9-1.4c-0.8-1.9-2.4-2.9-4.1-3.4c-1.8-0.6-3.8-0.7-5.7-0.9c-1.9-0.2-3.8-0.1-5.8-0.2
	c-0.6-0.1-0.9,0.1-1,0.7c-0.1,1.1-0.3,2-0.3,3.1v8.8c0,2.4-0.1,4.9-0.1,7.3c0,0.3,0.2,0.6,0.3,0.8c0.7-0.1,1.3-0.4,1.5-0.2
	c1.3,0.2,2.4,0.3,3.7,0.1c1.1-0.2,2-0.3,3.1-0.4c3.5-0.2,6.3-1.6,8.6-4.1c0.5-0.6,1-1.3,1.2-2.1c0.3-1.2,0.3-2.4,0.3-3.6
	C208.3,99.1,208,97.7,207.5,96.2z M151.5,117.1c-0.5-1.3-1-2.6-1.4-3.9c-1.3-3.5-2.4-7-3.6-10.6c-1.2-3.4-2.6-6.5-3.5-10
	c0-0.2,0-0.3-0.1-0.4c-0.2-0.2-0.5-0.5-0.7-0.5c-0.2,0-0.5,0.3-0.6,0.5c-0.2,0.4-0.3,0.8-0.4,1.3c-0.1,0.8-0.1,1.5-0.3,2.2
	c-0.6,2-1.3,4-1.8,6.1c-0.3,1-0.6,1.9-1,2.9c-1.5,3.5-2.5,7-3.4,10.7c-0.2,1-0.7,1.9-1.3,2.8c-0.3,0.5-0.4,0.8,0,1.2
	c0.2,0.3,0.4,0.5,0.5,0.6c1.1-0.2,2-0.5,3-0.6h1.4c1.2-0.1,2.4-0.2,3.7-0.2c0.5,0,1,0.1,1.4,0.1c1.3,0,2.6-0.1,3.9-0.1h4.2
	C152,118,152,117.9,151.5,117.1z M207.5,96.2c-0.2-0.5-0.7-1-0.9-1.4c-0.8-1.9-2.4-2.9-4.1-3.4c-1.8-0.6-3.8-0.7-5.7-0.9
	c-1.9-0.2-3.8-0.1-5.8-0.2c-0.6-0.1-0.9,0.1-1,0.7c-0.1,1.1-0.3,2-0.3,3.1v8.8c0,2.4-0.1,4.9-0.1,7.3c0,0.3,0.2,0.6,0.3,0.8
	c0.7-0.1,1.3-0.4,1.5-0.2c1.3,0.2,2.4,0.3,3.7,0.1c1.1-0.2,2-0.3,3.1-0.4c3.5-0.2,6.3-1.6,8.6-4.1c0.5-0.6,1-1.3,1.2-2.1
	c0.3-1.2,0.3-2.4,0.3-3.6C208.3,99.1,208,97.7,207.5,96.2z M151.5,117.1c-0.5-1.3-1-2.6-1.4-3.9c-1.3-3.5-2.4-7-3.6-10.6
	c-1.2-3.4-2.6-6.5-3.5-10c0-0.2,0-0.3-0.1-0.4c-0.2-0.2-0.5-0.5-0.7-0.5c-0.2,0-0.5,0.3-0.6,0.5c-0.2,0.4-0.3,0.8-0.4,1.3
	c-0.1,0.8-0.1,1.5-0.3,2.2c-0.6,2-1.3,4-1.8,6.1c-0.3,1-0.6,1.9-1,2.9c-1.5,3.5-2.5,7-3.4,10.7c-0.2,1-0.7,1.9-1.3,2.8
	c-0.3,0.5-0.4,0.8,0,1.2c0.2,0.3,0.4,0.5,0.5,0.6c1.1-0.2,2-0.5,3-0.6h1.4c1.2-0.1,2.4-0.2,3.7-0.2c0.5,0,1,0.1,1.4,0.1
	c1.3,0,2.6-0.1,3.9-0.1h4.2C152,118,152,117.9,151.5,117.1z M207.5,96.2c-0.2-0.5-0.7-1-0.9-1.4c-0.8-1.9-2.4-2.9-4.1-3.4
	c-1.8-0.6-3.8-0.7-5.7-0.9c-1.9-0.2-3.8-0.1-5.8-0.2c-0.6-0.1-0.9,0.1-1,0.7c-0.1,1.1-0.3,2-0.3,3.1v8.8c0,2.4-0.1,4.9-0.1,7.3
	c0,0.3,0.2,0.6,0.3,0.8c0.7-0.1,1.3-0.4,1.5-0.2c1.3,0.2,2.4,0.3,3.7,0.1c1.1-0.2,2-0.3,3.1-0.4c3.5-0.2,6.3-1.6,8.6-4.1
	c0.5-0.6,1-1.3,1.2-2.1c0.3-1.2,0.3-2.4,0.3-3.6C208.3,99.1,208,97.7,207.5,96.2z M151.5,117.1c-0.5-1.3-1-2.6-1.4-3.9
	c-1.3-3.5-2.4-7-3.6-10.6c-1.2-3.4-2.6-6.5-3.5-10c0-0.2,0-0.3-0.1-0.4c-0.2-0.2-0.5-0.5-0.7-0.5c-0.2,0-0.5,0.3-0.6,0.5
	c-0.2,0.4-0.3,0.8-0.4,1.3c-0.1,0.8-0.1,1.5-0.3,2.2c-0.6,2-1.3,4-1.8,6.1c-0.3,1-0.6,1.9-1,2.9c-1.5,3.5-2.5,7-3.4,10.7
	c-0.2,1-0.7,1.9-1.3,2.8c-0.3,0.5-0.4,0.8,0,1.2c0.2,0.3,0.4,0.5,0.5,0.6c1.1-0.2,2-0.5,3-0.6h1.4c1.2-0.1,2.4-0.2,3.7-0.2
	c0.5,0,1,0.1,1.4,0.1c1.3,0,2.6-0.1,3.9-0.1h4.2C152,118,152,117.9,151.5,117.1z M207.5,96.2c-0.2-0.5-0.7-1-0.9-1.4
	c-0.8-1.9-2.4-2.9-4.1-3.4c-1.8-0.6-3.8-0.7-5.7-0.9c-1.9-0.2-3.8-0.1-5.8-0.2c-0.6-0.1-0.9,0.1-1,0.7c-0.1,1.1-0.3,2-0.3,3.1v8.8
	c0,2.4-0.1,4.9-0.1,7.3c0,0.3,0.2,0.6,0.3,0.8c0.7-0.1,1.3-0.4,1.5-0.2c1.3,0.2,2.4,0.3,3.7,0.1c1.1-0.2,2-0.3,3.1-0.4
	c3.5-0.2,6.3-1.6,8.6-4.1c0.5-0.6,1-1.3,1.2-2.1c0.3-1.2,0.3-2.4,0.3-3.6C208.3,99.1,208,97.7,207.5,96.2z M151.5,117.1
	c-0.5-1.3-1-2.6-1.4-3.9c-1.3-3.5-2.4-7-3.6-10.6c-1.2-3.4-2.6-6.5-3.5-10c0-0.2,0-0.3-0.1-0.4c-0.2-0.2-0.5-0.5-0.7-0.5
	c-0.2,0-0.5,0.3-0.6,0.5c-0.2,0.4-0.3,0.8-0.4,1.3c-0.1,0.8-0.1,1.5-0.3,2.2c-0.6,2-1.3,4-1.8,6.1c-0.3,1-0.6,1.9-1,2.9
	c-1.5,3.5-2.5,7-3.4,10.7c-0.2,1-0.7,1.9-1.3,2.8c-0.3,0.5-0.4,0.8,0,1.2c0.2,0.3,0.4,0.5,0.5,0.6c1.1-0.2,2-0.5,3-0.6h1.4
	c1.2-0.1,2.4-0.2,3.7-0.2c0.5,0,1,0.1,1.4,0.1c1.3,0,2.6-0.1,3.9-0.1h4.2C152,118,152,117.9,151.5,117.1z M207.5,96.2
	c-0.2-0.5-0.7-1-0.9-1.4c-0.8-1.9-2.4-2.9-4.1-3.4c-1.8-0.6-3.8-0.7-5.7-0.9c-1.9-0.2-3.8-0.1-5.8-0.2c-0.6-0.1-0.9,0.1-1,0.7
	c-0.1,1.1-0.3,2-0.3,3.1v8.8c0,2.4-0.1,4.9-0.1,7.3c0,0.3,0.2,0.6,0.3,0.8c0.7-0.1,1.3-0.4,1.5-0.2c1.3,0.2,2.4,0.3,3.7,0.1
	c1.1-0.2,2-0.3,3.1-0.4c3.5-0.2,6.3-1.6,8.6-4.1c0.5-0.6,1-1.3,1.2-2.1c0.3-1.2,0.3-2.4,0.3-3.6C208.3,99.1,208,97.7,207.5,96.2z
	 M151.5,117.1c-0.5-1.3-1-2.6-1.4-3.9c-1.3-3.5-2.4-7-3.6-10.6c-1.2-3.4-2.6-6.5-3.5-10c0-0.2,0-0.3-0.1-0.4
	c-0.2-0.2-0.5-0.5-0.7-0.5c-0.2,0-0.5,0.3-0.6,0.5c-0.2,0.4-0.3,0.8-0.4,1.3c-0.1,0.8-0.1,1.5-0.3,2.2c-0.6,2-1.3,4-1.8,6.1
	c-0.3,1-0.6,1.9-1,2.9c-1.5,3.5-2.5,7-3.4,10.7c-0.2,1-0.7,1.9-1.3,2.8c-0.3,0.5-0.4,0.8,0,1.2c0.2,0.3,0.4,0.5,0.5,0.6
	c1.1-0.2,2-0.5,3-0.6h1.4c1.2-0.1,2.4-0.2,3.7-0.2c0.5,0,1,0.1,1.4,0.1c1.3,0,2.6-0.1,3.9-0.1h4.2C152,118,152,117.9,151.5,117.1z
	 M207.5,96.2c-0.2-0.5-0.7-1-0.9-1.4c-0.8-1.9-2.4-2.9-4.1-3.4c-1.8-0.6-3.8-0.7-5.7-0.9c-1.9-0.2-3.8-0.1-5.8-0.2
	c-0.6-0.1-0.9,0.1-1,0.7c-0.1,1.1-0.3,2-0.3,3.1v8.8c0,2.4-0.1,4.9-0.1,7.3c0,0.3,0.2,0.6,0.3,0.8c0.7-0.1,1.3-0.4,1.5-0.2
	c1.3,0.2,2.4,0.3,3.7,0.1c1.1-0.2,2-0.3,3.1-0.4c3.5-0.2,6.3-1.6,8.6-4.1c0.5-0.6,1-1.3,1.2-2.1c0.3-1.2,0.3-2.4,0.3-3.6
	C208.3,99.1,208,97.7,207.5,96.2z M151.5,117.1c-0.5-1.3-1-2.6-1.4-3.9c-1.3-3.5-2.4-7-3.6-10.6c-1.2-3.4-2.6-6.5-3.5-10
	c0-0.2,0-0.3-0.1-0.4c-0.2-0.2-0.5-0.5-0.7-0.5c-0.2,0-0.5,0.3-0.6,0.5c-0.2,0.4-0.3,0.8-0.4,1.3c-0.1,0.8-0.1,1.5-0.3,2.2
	c-0.6,2-1.3,4-1.8,6.1c-0.3,1-0.6,1.9-1,2.9c-1.5,3.5-2.5,7-3.4,10.7c-0.2,1-0.7,1.9-1.3,2.8c-0.3,0.5-0.4,0.8,0,1.2
	c0.2,0.3,0.4,0.5,0.5,0.6c1.1-0.2,2-0.5,3-0.6h1.4c1.2-0.1,2.4-0.2,3.7-0.2c0.5,0,1,0.1,1.4,0.1c1.3,0,2.6-0.1,3.9-0.1h4.2
	C152,118,152,117.9,151.5,117.1z M207.5,96.2c-0.2-0.5-0.7-1-0.9-1.4c-0.8-1.9-2.4-2.9-4.1-3.4c-1.8-0.6-3.8-0.7-5.7-0.9
	c-1.9-0.2-3.8-0.1-5.8-0.2c-0.6-0.1-0.9,0.1-1,0.7c-0.1,1.1-0.3,2-0.3,3.1v8.8c0,2.4-0.1,4.9-0.1,7.3c0,0.3,0.2,0.6,0.3,0.8
	c0.7-0.1,1.3-0.4,1.5-0.2c1.3,0.2,2.4,0.3,3.7,0.1c1.1-0.2,2-0.3,3.1-0.4c3.5-0.2,6.3-1.6,8.6-4.1c0.5-0.6,1-1.3,1.2-2.1
	c0.3-1.2,0.3-2.4,0.3-3.6C208.3,99.1,208,97.7,207.5,96.2z M151.5,117.1c-0.5-1.3-1-2.6-1.4-3.9c-1.3-3.5-2.4-7-3.6-10.6
	c-1.2-3.4-2.6-6.5-3.5-10c0-0.2,0-0.3-0.1-0.4c-0.2-0.2-0.5-0.5-0.7-0.5c-0.2,0-0.5,0.3-0.6,0.5c-0.2,0.4-0.3,0.8-0.4,1.3
	c-0.1,0.8-0.1,1.5-0.3,2.2c-0.6,2-1.3,4-1.8,6.1c-0.3,1-0.6,1.9-1,2.9c-1.5,3.5-2.5,7-3.4,10.7c-0.2,1-0.7,1.9-1.3,2.8
	c-0.3,0.5-0.4,0.8,0,1.2c0.2,0.3,0.4,0.5,0.5,0.6c1.1-0.2,2-0.5,3-0.6h1.4c1.2-0.1,2.4-0.2,3.7-0.2c0.5,0,1,0.1,1.4,0.1
	c1.3,0,2.6-0.1,3.9-0.1h4.2C152,118,152,117.9,151.5,117.1z M207.5,96.2c-0.2-0.5-0.7-1-0.9-1.4c-0.8-1.9-2.4-2.9-4.1-3.4
	c-1.8-0.6-3.8-0.7-5.7-0.9c-1.9-0.2-3.8-0.1-5.8-0.2c-0.6-0.1-0.9,0.1-1,0.7c-0.1,1.1-0.3,2-0.3,3.1v8.8c0,2.4-0.1,4.9-0.1,7.3
	c0,0.3,0.2,0.6,0.3,0.8c0.7-0.1,1.3-0.4,1.5-0.2c1.3,0.2,2.4,0.3,3.7,0.1c1.1-0.2,2-0.3,3.1-0.4c3.5-0.2,6.3-1.6,8.6-4.1
	c0.5-0.6,1-1.3,1.2-2.1c0.3-1.2,0.3-2.4,0.3-3.6C208.3,99.1,208,97.7,207.5,96.2z M9.8,72.9v77h525.5v-77H9.8z M527,137.7
	c-0.1,0.2-0.1,0.5-0.1,0.8c0.1,3.5-0.8,3.9-3.4,5.1c-1.3,0.5-2.5,0.9-3.8,0.8c-2.5-0.2-4-1.3-4.6-3.6c-0.2-1-0.5-2-0.7-3.1
	c0.1-1.4,0.9-2.6,1.6-3.7c1.3-1.6,3.1-2.7,5.2-2.8c1.8-0.1,4.6,1.3,5.5,3.4C527.1,135.7,527.6,136.7,527,137.7z M496.4,93.9
	c0,2.6-0.2,5.2-0.1,7.8c0,1.6-0.1,3.2-0.1,4.8c-0.1,1.4,0,3,0,4.5c0,1.6-0.1,3.4-0.2,5c0,0.7-0.2,1.3,0.2,1.8
	c0.1,0.1,0.1,0.3,0.1,0.5c0.1,2.2,0.2,4.5,0.2,6.7c0,1.3,0,2.5-0.1,3.8c-0.1,2.5-0.3,4.9-0.4,7.3c0,0.8,0.2,1.4,0.2,2.2
	c0,1.4-0.1,2.9-0.2,4.4c-3.9,0.1-7.7,0.1-11.6,0.2c-0.1-0.3-0.2-0.8-0.2-1.3c-0.1-2.5-0.2-5.1-0.3-7.6v-0.5c0.4-3.5-0.1-7-0.1-10.5
	c0-2.5,0.2-4.9,0.2-7.4c0-3.4,0.4-6.6-0.1-10v-1.3c0.1-2.5,0.1-4.9,0.2-7.4v-2.1c0-0.8-0.2-1.5,0.2-2.3c0.3-0.6-0.3-1.2-1-1
	c-2.5,0.7-5.1,0.5-7.7,0.3c-1.1-0.1-2.1,0.1-3.2,0.1H467c-0.2-3.1-0.3-6.1-0.5-9.1h3.9c0.5,0,1-0.2,1.4-0.3c0.3-0.1,0.7-0.2,1-0.2
	c2.9-0.1,5.7,0.2,8.6,0.5c1.4,0.2,3,0,4.4,0c0.6,0,1.3-0.1,1.9-0.1c2.6,0.1,5.1,0.1,7.7,0.2c2.2,0,4.5,0.2,6.7,0.2
	c3.4,0,6.8-0.1,10.2-0.2c1.3,0,1.6,0.3,1.6,1.5c0,2.2,0.2,4.3-0.1,6.4c0,0.5,0.1,0.9,0.1,1.4c-1.2,0-2.1,0-3.2-0.3
	c-0.6,0-1.1-0.1-1.6-0.1h-6.4c-1.6,0-3.3,0.1-4.9,0.2C496.8,92.3,496.4,92.8,496.4,93.9z M434.9,143.2h-0.6c-2.3-0.1-4.7-0.3-7-0.4
	h-3.7c0-1.3,0-2.4-0.1-3.6c-0.1-1.9-0.4-3.9-0.6-5.8c-0.1-1.1-0.2-2.1-0.3-3.3c-0.1-2.3-0.3-4.7-0.2-7c0-2.1,0.4-4.1,0.6-6.2
	c0.1-0.7-0.1-1.4,0.7-1.8c0.1-0.1,0.1-0.4,0.1-0.6c-0.1-0.8-0.1-1.5-0.2-2.3c-0.1-1.5-0.3-3.2-0.4-4.8c0-0.5-0.2-0.9-0.2-1.3V103
	c-0.1-3.4-0.2-6.8-0.4-10.3c-0.1-2.5-0.4-4.9-0.5-7.3c0-0.8,0.1-1.4,0.2-2.3c0.9,0,1.6,0.1,2.4,0c1,0,1.8-0.2,2.8-0.3
	c1.2-0.1,2.2-0.2,3.4-0.2c1.3,0,2.6,0.2,3.9,0.2c2.1,0.1,4.2,0.2,6.4,0.2c1.9,0,3.9-0.2,5.8-0.2c2.2-0.1,4.4-0.1,6.6-0.1h7.3
	c0.2,3,0.4,6,0,8.9c-0.3,0.1-0.4,0.2-0.6,0.2c-4.2,0.1-8.6,0.1-12.8,0.2c-2,0.1-4,0-6.1,0c-1.6-0.1-3.4-0.1-5-0.2
	c-0.9,0-1.1,0.1-1.1,0.9c-0.1,1.9-0.4,3.8-0.1,5.7c0.3,2.1,0.1,4.2,0.1,6.4c0.1,1.1,0.2,2.1,0.2,3.2c0,0.5,0.3,0.8,0.8,0.8h8.9
	c2.7,0,5.4-0.1,8.1-0.2h1.5c-0.2,2.9,0.6,5.6,0.2,8.6c-0.8,0.1-1.4,0.2-2.1,0.2c-0.9,0.1-1.8,0.1-2.8,0.1h-10
	c-1.2-0.1-2.4-0.1-3.6-0.2c-1,0-1.3,0.3-1.3,1.3s0.1,1.8,0.1,2.8c0,1.9-0.1,3.9-0.1,5.9c0,1.2,0.1,2.4,0.2,3.6v2.1
	c-0.8,0-1.4,0-1.4,1.1c0.3,0,0.6,0.2,0.9,0.2c1-0.1,1.8-0.3,2.8-0.3c1.1,0,2,0.2,3.1,0.2c1.2,0.1,2.4,0.1,3.7,0.1
	c0.8,0,1.4,0.1,2.2,0.1c2.6-0.1,5.3-0.1,8-0.2h5.2c0.6,0,0.9,0.3,0.9,1v1.9c0.1,1.3,0.1,2.7,0.1,4v1.5c-0.9,1-2,1-3,1
	c-1.6,0.1-3.2-0.1-4.7-0.1c-1.3,0-2.6-0.1-3.9-0.1c-1.7-0.1-3.5-0.2-5.2-0.2C441,142.8,437.9,142.7,434.9,143.2z M401.6,142.2
	c-1.4,0.2-3.1,0.1-4.6,0.1c-3.5,0.1-6.9-0.1-10.4,0.3c-1.1,0.1-2.2,0-3.4,0c-1.2,0-2.3,0.1-3.5,0.1c-0.2,0-0.4,0.1-0.6,0.1
	c-1.2,0.1-1.3-0.2-1.3-1.3c0.1-0.5,0-1.1,0-1.5c0.2-2.6,0.3-5.3,0-7.9c-0.1-1.2,0.2-2.3,0.2-3.5c0.1-0.9,0-1.8-0.1-2.8
	c-0.2-1.3-0.1-2.5,0-3.9c0.1-1.3,0-2.6,0-3.9c0.1-2.2,0.2-4.4,0.3-6.6c0.1-1.4,0-3,0-4.4c0-1.3,0-2.4,0.1-3.7
	c0.1-1.4-0.1-2.9-0.2-4.3c-0.1-1.9-0.4-3.9-0.3-5.9c0.1-1.9,0.4-3.9,0.6-6c0.1-0.8,0-1.6,0-2.4v-2.1c3.9,0,7.7-0.3,11.1-0.5
	c0,1.3-0.2,2.6,0,3.8c0.5,2.8-0.1,5.6,0,8.4c0.1,1.2,0.2,2.3,0.2,3.5c0,0.7,0.1,1.3,0,2c-0.2,2.5,0.3,5.1,0.3,7.6
	c0.1,1.4,0.1,2.9,0.1,4.3c0,0.8-0.2,1.4-0.2,2.1c-0.1,1.8-0.1,3.7-0.2,5.5c0,0.8,0.1,1.4,0.1,2.2v1.4c-0.2,2.6-0.3,5.3,0,7.9
	c0,0.8,0.3,1.6-0.9,2.3c0.8,0.2,1.1,0.4,1.4,0.4c3.2-0.1,6.4-0.3,9.6-0.4c1.4-0.1,2.8-0.2,4.2-0.2c1.4,0,2.9,0.2,4.3,0.2h4.5
	c0.3,1,0.3,1.8,0.2,2.7c-0.2,1.6-0.2,3.2-0.3,4.8v1.3c-1.3,0.5-2.5,0.5-3.8,0.4C406.7,142.3,404.2,142,401.6,142.2z M367.3,142.8
	c-0.8,0.1-1.3,0.3-1.9,0.3c-1.7,0-3.6-0.1-5.3-0.2c-1.9-0.1-3.9-0.1-5.9-0.1c-4.3-0.1-8.8-0.1-13.1-0.2c-1.9,0-3.8-0.2-5.6-0.2
	c-1.3,0-2.7,0.2-4,0.3c0,0-0.1,0.1-0.2,0.1c-1.6,0.2-2.1-0.2-2-1.8c0.1-1.2-0.1-2.3-0.1-3.5c0-2.2-0.1-4.3,0.1-6.4
	c0.2-2.2,0.2-4.3,0.2-6.5c0.1-1.8,0-3.6-0.1-5.4c-0.1-1.3-0.2-2.6-0.3-3.9c0-0.9,0-1.7,0.2-2.6c0.2-1.3,0.1-2.5,0-3.8
	c0-0.6,0.2-1.2,0.2-1.7c0-3-0.1-6-0.1-9c0-2.1,0.2-4.3,0.3-6.4c0.1-1.8,0.2-3.6,0-5.4c-0.2-1.3,0-2.7,0.1-4c1.3-0.1,2.7-0.3,3.9-0.1
	c2-0.1,4.1,0,6.2,0h1.8c1.2,0,2.3,0.2,3.5,0.2c2.4,0.1,4.7,0.1,7,0.1c2.6,0.1,5.1,0.1,7.7,0.4c2.4,0.3,4.9,0.1,7.3,0.1v8.5
	c-0.6,0.1-1.2,0.2-1.7,0.2c-2.7-0.1-5.5-0.2-8.2-0.2c-3.2-0.1-6.4-0.1-9.5-0.1c-1.2,0-2.4-0.1-3.6-0.2h-0.4c-1.6-0.1-2,0.2-2.1,1.8
	c-0.2,1.6-0.4,3.4-0.4,5c-0.1,1.7,0,3.6,0.1,5.3c0.1,1.5,0.2,3.1,0.3,4.6c0,0.1,0,0.1,0.1,0.3c0.2,0,0.6,0.1,0.9,0.1
	c2.3-0.1,4.5-0.1,6.8-0.1c2.5,0.1,5,0.2,7.5,0.3c1.4,0,2.9,0.1,4.4,0.1v8.2c-0.6,0.1-1.1,0.2-1.5,0.2h-8.4c-2.4,0-4.7,0.1-7.1,0.2
	c-0.4,0-0.8-0.1-1.2-0.1c-1.3-0.1-1.6,0.2-1.6,1.4c0,2.7,0.1,5.4,0.1,8.1c0,1.5,0.1,3,0,4.4c0,0.9-0.4,1.6-0.6,2.6
	c8.6,0.3,17.2-0.2,25.9,0.4C368,136.9,367.2,139.8,367.3,142.8z M312.9,137.7c-1.9,1.3-3.9,2.8-6.1,3.8c-0.7,0.3-1.3,0.7-2.1,0.4
	c-0.2,0-0.5,0-0.6,0.1c-0.7,1.1-1.8,0.9-2.7,1c-3.6,0.3-7.1,0.5-10.6-0.4c-3.9-1-7.6-2.5-11.1-4.7c-0.9-0.6-1.7-1.3-2.3-2.2
	c0.8-1.3,1.6-2.6,2.4-3.9l0.9-1.4c0.4-0.8,1.1-1.3,1.8-1.6c0.3-0.2,0.9-0.2,1.2,0c1.7,0.9,3.6,1.7,5.3,2.6c0.5,0.3,1.1,0.5,1.5,0.7
	c1.7,0.6,3.4,1.3,5.1,1.7c1.3,0.3,2.7,0.1,4,0.2c1.7,0.1,3.3-0.6,4.7-1.3c1.3-0.7,2.2-1.7,2.6-3.3c0.6-2.1,0.5-4.1-0.3-6.2
	c-0.2-0.6-0.3-1.3-0.6-1.7c-0.4-0.7-1-1.1-1.6-1.4c-1.9-1.3-4-1.7-6.2-2.5c-1.3-0.5-2.6-0.9-3.9-1.3c-2.3-0.9-4.5-1.7-6.7-2.7
	c-1.2-0.6-2.2-1.3-3.3-2.1c-0.2-0.1-0.4-0.4-0.5-0.7c-0.2-0.6-0.5-1-1.1-1.3c-1.2-0.7-1.6-1.8-2-2.9c-1.5-4.5-2.1-9,0.2-13.6
	c0.2-0.4,0.3-0.9,0.5-1.3c1.3-2.6,3-4.7,5.4-6.2c0.9-0.5,1.7-1.1,2.6-1.6c1.2-0.7,2.3-1.2,3.6-1.4c3.3-0.7,6.5-1,9.8-0.9
	c3.6,0.1,6.7,1.1,9.8,2.7c1.3,0.7,2.4,1.6,3.7,2.4c0.6,0.3,1.1,0.7,1.5,1c-0.8,1.8-1.4,3.5-2.2,5.1c-0.6,1.4-1.8,2.2-3.2,2.1
	c-0.4-0.1-0.7-0.3-1.1-0.4c-1.9-0.8-3.7-1.7-5.5-2.7c-1.1-0.6-2.3-0.9-3.5-1.2c-2.2-0.6-4.4-0.5-6.5,0.6c-0.7,0.3-1.3,0.7-1.7,1.2
	c-0.7,0.7-1.3,1.4-1.8,2.3c-0.7,1-0.7,2.2-0.9,3.4c0,0.3-0.1,0.7-0.1,1c-0.1,0.2-0.1,0.5,0,0.6c0.8,0.5,0.8,1.3,1.1,1.9
	c0.2,0.5,0.6,0.9,1,1.2c1.9,1.2,3.6,2.5,5.8,3c0.2,0,0.3,0,0.4,0.1c1.6,1.3,3.8,1.2,5.6,2c3,1.5,6.4,2.3,9,4.6
	c0.3,0.3,0.7,0.5,0.9,0.8c1.3,1.7,2.8,3.4,3.3,5.6c0.3,1,0.5,1.8,0.1,2.8c-0.1,0.2,0,0.6,0.2,0.7c0.5,0.3,0.5,0.7,0.5,1.1
	c0,3.3-0.6,6.4-1.9,9.2c-0.7,1.3-1.4,2.5-2.3,3.7C314.5,136.7,313.7,137.2,312.9,137.7z M263.8,91.7c-1.2,0-2.3-0.1-3.5-0.1
	c-1.3-0.1-2.6-0.1-3.9-0.2c-0.5,0-0.8,0.2-0.9,0.7c-0.1,0.3-0.1,0.6-0.1,0.9c0.5,2.8,0.3,5.7,0.1,8.5c-0.1,1.2-0.1,2.3-0.1,3.5
	c0,2.4-0.1,4.8-0.1,7.2c0,3,0.1,6,0.2,9c0,1.6,0.1,3.2,0.1,4.8c-0.1,1.3-0.3,2.5-0.4,3.8c-0.1,1.4-0.1,3-0.1,4.4
	c0,1.4,0.1,2.9-0.2,4.3c-0.2,1.2-0.1,2.4-0.2,3.6h-11.9v-2.9c0-2.2-0.1-4.5-0.1-6.7c0-2.2,0.2-4.3,0.2-6.4c0-2,0-4.1-0.1-6.2
	c-0.2-2.8-0.1-5.6,0.1-8.4c0.2-2.5,0.3-5,0-7.6c-0.2-1.3,0.1-2.6,0.1-3.9c0.1-2,0.1-3.9,0.1-6v-2.3c-0.8-0.5-1.5-0.4-2.3-0.4
	c-3.1,0-6.1,0.1-9.1,0c-2,0-4-0.2-6.2-0.3c0-1.4,0.1-3,0.1-4.4c-0.1-1.4-0.4-2.9,0.1-4.4c0.6-0.3,1.1-0.4,1.7-0.2
	c1.4,0.4,3,0,4.4,0.2c0.5,0.1,1.1,0.1,1.5,0.1c2.2-0.1,4.5-0.3,6.7-0.4c0.9-0.1,1.8,0.1,2.8,0.1c1.9-0.1,3.9-0.2,5.9-0.2
	c0.9-0.1,1.8,0,2.7,0c3.4,0.1,6.7,0.2,10.1,0.3c1.3,0,2.6,0.2,3.8,0.3c0.4,0,0.8,0.1,1.2,0c1.7-0.6,3.5-0.1,5.2-0.1
	c0.1,0,0.3,0.1,0.4,0.1c1.2,0,1.2,0,1.2,1.1c0.1,1.9,0.2,3.9,0.2,5.9c0,0.7-0.2,1.3-0.3,2.1c-2.2,0.1-4.4,0.2-6.5,0.3
	C265.7,91.6,264.7,91.7,263.8,91.7z M223.7,142.1c-2.2-0.1-4.3-0.1-6.4-0.2c-1.6-0.1-3.4-0.2-5-0.3c-1.1-0.1-1.8-0.5-2.3-1.5
	c-0.4-1.1-1-2.1-1.4-3.2c-0.2-0.5-0.6-1-0.9-1.4c-0.5-1-1.1-1.9-1.5-2.9c-1.3-2.7-2.8-5.3-4.4-7.8c-0.9-1.3-1.7-2.6-2.6-3.9
	c-0.8-1.2-1.8-1.7-3.3-1.8c-1.6-0.1-3.2-0.2-4.8-0.2c-0.4,0-0.8,0.4-1.1,0.5v2.6c-0.1,1.7-0.1,3.6-0.1,5.3c0,0.8,0.1,1.4,0.1,2.2
	c-0.1,2.4-0.2,4.7-0.2,7.1c-0.1,1.3-0.5,2.6-0.1,3.9c0.1,0.3-0.2,0.7-0.3,1.1h-11c-1,0-1.2-0.3-1.1-1.3c0.2-1.5,0.2-3-0.1-4.5
	c-0.2-0.6-0.1-1.3-0.1-1.8c-0.1-1.6-0.2-3.2-0.2-4.8c0-1.6,0.1-3.3,0.1-4.9c0.1-1.8,0-3.6,0.2-5.4c0.2-1.3-0.1-2.8-0.1-4.2
	c0-1.7,0.1-3.5,0.1-5.2c0-2.2-0.1-4.4,0-6.6c0.1-3.4,0.3-6.8,0.5-10.2c0-0.3,0.1-0.6,0-0.9c-0.5-1.8-0.2-3.7-0.1-5.5
	c0.1-0.7,0-1.4,0-2.1v-0.6c0.1-0.7,0.2-1.3,0.4-2h9.1c2.6,0.1,5.3,0.2,8,0.2c2.1,0.1,4.1-0.1,6.2,0.1c1.6,0.1,3.3,0.5,4.8,1
	c2.3,0.8,4.6,1.5,6.8,2.5c1,0.4,1.8,1.1,2.6,1.7c0.9,0.7,1.8,1.3,2.1,2.5c0.1,0.4,0.7,0.7,0.9,1.1c1.3,2.1,2.1,4.3,2.1,6.9
	c0,0.9,0.1,1.7,0.2,2.6c0.2,2.5-0.5,4.9-1.6,7.2c-0.5,1-1.2,1.7-1.8,2.6c-0.6,0.8-1.3,1.4-2.1,2c-0.9,0.6-1.6,1.3-2.6,1.8
	c-0.3,0.1-0.5,0.3-0.6,0.5c-0.5,1.4-1.8,1.6-3,2.2c-0.6,0.2-1.1,0.4-1.6,0.6c-0.5,0.1-1.1,0.2-1.5,0.3c-0.2,0.1-0.3,0.2-0.6,0.3
	c0.3,0.8,0.9,1,1.4,0.6c1.7-0.9,3,0.2,4.2,1.1c1.3,1,2,2.5,2.9,3.9c1.3,2.1,2.6,4.3,3.9,6.4c1.1,1.8,2.1,3.8,3.3,5.6
	c0.7,1.1,1.3,2.1,1.9,3.2c0.7,1.1,1.3,2.2,1.9,3.3C224.6,142,224.3,142.1,223.7,142.1z M167.2,141.4c-0.8,0-1.4,0.1-2.2,0.2
	c-0.9,0.1-1.7,0.1-2.6,0.2c-1.4,0.2-2.4-0.5-3.1-1.7c-0.4-0.8-0.7-1.5-1-2.3c-0.7-2.1-1.3-4.3-2-6.4c-0.2-0.7-0.6-1.3-0.9-2.1
	c0.1-0.2,0.2-0.5,0.4-0.8c-0.1-0.1-0.1-0.2-0.2-0.3c-0.2-0.1-0.5-0.3-0.7-0.3c-1.6-0.1-3.3-0.1-4.9-0.1c-1.3,0-2.6,0.2-3.9,0.2
	c-1.3,0-2.6-0.1-3.9-0.2c-0.5-0.1-0.9,0.1-1.3,0.1c-1.7,0.2-3.6,0.2-5.3,0.4c-1.6,0.1-3.3,0.2-4.9-0.1c-0.6-0.1-1.2-0.3-1.8-0.4
	c-0.3,0.5-0.2,0.9,0.1,1.3c0.1,0.2,0.2,0.6,0.1,0.8c-0.3,0.8-0.3,1.6-0.5,2.4c-0.7,2.7-1.6,5.4-3.3,7.8c-0.5,0.8-1.2,1.3-2.1,1.2
	c-0.6-0.1-1.1,0.1-1.5,0.3c-0.8,0.2-1.6,0.1-2.5,0.1h-6.4c0.5-1.5,0.9-2.9,1.3-4.2c0.8-1.9,1.4-3.8,2.2-5.8c0.4-0.9,1-1.7,1.3-2.6
	c0.9-2.1,1.5-4.2,2.4-6.4c1-2.3,1.3-4.7,2.2-7c0.5-1.3,1.1-2.4,1.6-3.6c0.5-1.1,1-2.2,1.4-3.4c0.3-0.7,0.5-1.3,0.8-1.9
	c1.2-2.2,1.6-4.6,2.5-6.8c1-2.4,1.9-4.7,2.8-7.1c0.3-0.7,0.3-1.3,0.6-2c0.6-1.3,1.2-2.6,1.7-3.9c0.5-1.1,1-2.1,1.5-3.2
	c0.4-0.6,0.7-1.3,1-1.8c0.2-0.5,0.6-0.7,1.1-0.7c1.7,0,3.6-0.1,5.3,0.2c1.1,0.1,2.1-0.1,3.2-0.1c1,0,1.9,0.1,2.9,0.1
	c0.5,0,0.7,0.3,0.9,0.7c1.1,2.4,2.1,4.7,3.1,7.1c0.5,1,0.7,1.9,1.1,2.9c1.1,2.8,2.2,5.6,3.3,8.4c0.7,1.8,1.4,3.6,2.1,5.3
	c0.9,2.2,1.8,4.4,2.7,6.7c0.5,1.3,0.9,2.6,1.3,3.9c0.2,0.8,0.5,1.4,0.8,2.2c0.8,2.3,1.5,4.5,2.4,6.8c0.3,0.8,0.8,1.4,1.1,2.2
	c0.2,0.4,0.4,0.9,0.5,1.3c0.5,2.2,1.3,4.4,2.3,6.5c1,1.8,1.6,3.9,2.4,5.8C170.5,141.2,168.8,141.1,167.2,141.4z M108.3,110
	c-0.6,1.3-1.1,2.8-1.5,4.1c-0.1,0.2-0.2,0.4-0.3,0.6c-1.3,1.5-1.9,3.4-2.5,5.2c-0.7,2.1-1.9,3.9-3.1,6c0.6,0.6,0.7,1.2,0.4,1.9
	c-1.3,3.2-2.5,6.4-3.8,9.5c-0.3,1-0.6,1.8-1,2.8c-0.1,0.5-0.4,0.9-0.6,1.4c-1.1-0.1-2-0.1-3-0.2c-1.7-0.1-3.5-0.2-5.2-0.3
	c-1.2-0.1-2.3-0.1-3.5-0.1c-0.5,0-0.6-0.3-0.8-0.7c-0.8-1.9-1.5-3.9-2.5-5.9s-1.5-4-2.3-6.1c-0.5-1.4-0.9-2.9-1.3-4.3
	c0-0.2,0-0.3-0.1-0.4c-1.3-2.1-2-4.5-3.1-6.7c0-0.1-0.1-0.1-0.1-0.2c-0.4-2.1-1.7-3.8-2.5-5.8c-0.2-0.4-0.3-0.7-0.4-1.1
	c-0.5-2.9-1.7-5.5-2.8-8.2c-0.5-1.3-1.2-2.7-1.7-4c-0.2-0.5-0.3-1.1-0.5-1.6c-0.9-2.3-1.7-4.6-2.8-6.8c-1.3-2.7-2.2-5.5-3.4-8.4
	c0.4-0.1,0.8-0.3,1.2-0.3h6.3c0.9,0,1.8,0.1,2.8,0.2c1.4,0.1,2.3,0.9,2.7,2.2c0.1,0.1,0.1,0.2,0.2,0.3c1.3,0.8,1.7,2.3,2.2,3.7
	c0.9,2.4,1.5,4.8,2.4,7.2c0.5,1.5,1.3,3,1.8,4.4c0.8,2.2,1.4,4.4,2.2,6.5c0.6,1.5,1.2,3.1,1.7,4.6c0.8,2.2,1.4,4.4,2.2,6.6
	c0.5,1.4,1.1,2.7,1.5,4.1c0.8,2.4,1.3,4.7,2,7.1c0.1,0.2,0.1,0.4,0.2,0.6c0.5-0.2,1.3-1.3,1.4-1.6c0.5-1.7,0.9-3.5,1.4-5.1
	c0.7-1.9,1.4-3.8,2.1-5.9c0.5-1.4,0.9-2.9,1.3-4.3c0.5-1.3,0.9-2.7,1.3-4c0.6-2.2,2-4,2.7-6.2c0.7-2.1,1.6-4.2,2.3-6.4
	c0.5-1.3,1-2.5,1.4-3.8c0.5-1.3,1-2.8,1.4-4.1c0.5-1.3,1.1-2.6,1.8-3.8c0.8-1.3,1.5-1.4,2.7-1.5c1.9-0.2,3.8-0.2,5.8,0.1
	c1.3,0.2,2.8-0.1,4.1-0.1c0.3-0.1,0.6,0,1,0c-0.4,1.2-0.8,2.3-1.3,3.4c-0.9,2-1.7,3.9-2.6,5.9c-0.6,1.3-1.3,2.4-1.8,3.7
	c-0.7,1.7-1.3,3.6-2,5.4c-0.7,1.5-1.3,3-1.9,4.4C110,106.1,109.1,108,108.3,110z M54.7,132.4c-1,1.3-2,2.6-3.1,3.9
	c-0.5,0.6-1.3,1-1.9,1.4c-2.1,1.4-4.3,2.7-6.8,3.4c-3.2,0.9-6.4,1.2-9.5,0.8c-2.8-0.4-5.5-0.9-8.1-2.1c-1.7-0.9-3.5-1.6-5.1-2.5
	c-1-0.5-1.7-1.3-2.6-1.8c-0.5-0.4-1.1-0.6-1.7-1c1.2-1.9,2.2-3.9,3.4-5.9c0.5-0.7,1-1.3,1.9-1.4c0.7-0.2,1.3-0.3,1.9,0.2
	c1.6,1.1,3.3,1.8,4.9,2.7c3.8,2.1,7.9,2.8,12.1,1.6c1.5-0.5,2.9-1.4,4-2.5c0.9-0.8,1.2-1.9,1.3-3.1c0.2-1.1,0.2-2.2-0.1-3.4
	c-0.2-0.7-0.5-1.3-0.9-1.8c-1.1-1.7-2.6-2.8-4.4-3.6c-2.2-1-4.5-1.5-6.8-2.4c-2.8-1.1-5.8-1.8-8.4-3.5c-2-1.3-3.6-3-4.8-4.9
	c-1-1.4-1.5-3.1-2-4.7c-0.1-0.5-0.1-0.9-0.2-1.3c-0.5-3.4,0.1-6.4,1.6-9.4c0.4-0.9,0.9-1.7,1.1-2.6c0.3-1.3,1.3-2,2.1-2.9
	c0.7-0.6,1.3-1.2,2.1-1.6c1.7-1.2,3.4-2.5,5.4-3.2c1-0.3,1.9-0.6,2.9-0.8c1.6-0.3,3.3-0.5,4.9-0.6c0.8-0.1,1.4,0.1,2.2,0.2
	c3.9,0.4,7.6,1.3,11.1,3.3c0.8,0.5,1.6,0.7,2.4,1.2c0.8,0.4,1.4,1,2.1,1.4c0.4,0.4,0.3,0.9,0.1,1.3c-0.9,1.7-1.6,3.5-2.6,5.2
	c-0.8,1.3-1.8,1.6-3.4,1.3c-2-0.5-3.7-1.7-5.6-2.5c-2.3-1-4.6-1.5-7.1-1.2c-1.5,0.3-3,0.6-4.2,1.3c-1,0.5-1.8,1.3-2.4,2.2
	c-0.8,1.2-1.2,2.6-1.6,3.9c-0.1,0.2-0.1,0.4,0,0.5c0.7,2,1.8,3.9,3.9,4.7c1.9,0.8,3.9,1.6,5.9,2.3c1.9,0.7,3.8,1.2,5.7,1.8
	c2.5,1,5.1,2,7.2,3.8c2.5,2.1,4.4,4.5,4.9,7.8c0.2,1.3,0.6,2.4,0.5,3.7c0,0.8,0.3,1.5,0.4,2.3v1c-0.1,1.8-0.8,3.6-1.3,5.3
	C55.8,130.9,55.2,131.7,54.7,132.4z M207.9,104.2c0.3-1.2,0.3-2.4,0.3-3.6c0.1-1.5-0.2-3-0.8-4.4c-0.2-0.5-0.7-1-0.9-1.4
	c-0.8-1.9-2.4-2.9-4.1-3.4c-1.8-0.6-3.8-0.7-5.7-0.9c-1.9-0.2-3.8-0.1-5.8-0.2c-0.6-0.1-0.9,0.1-1,0.7c-0.1,1.1-0.3,2-0.3,3.1v8.8
	c0,2.4-0.1,4.9-0.1,7.3c0,0.3,0.2,0.6,0.3,0.8c0.7-0.1,1.3-0.4,1.5-0.2c1.3,0.2,2.4,0.3,3.7,0.1c1.1-0.2,2-0.3,3.1-0.4
	c3.5-0.2,6.3-1.6,8.6-4.1C207.3,105.8,207.7,105,207.9,104.2z M150.1,113.2c-1.3-3.5-2.4-7-3.6-10.6c-1.2-3.4-2.6-6.5-3.5-10
	c0-0.2,0-0.3-0.1-0.4c-0.2-0.2-0.5-0.5-0.7-0.5c-0.2,0-0.5,0.3-0.6,0.5c-0.2,0.4-0.3,0.8-0.4,1.3c-0.1,0.8-0.1,1.5-0.3,2.2
	c-0.6,2-1.3,4-1.8,6.1c-0.3,1-0.6,1.9-1,2.9c-1.5,3.5-2.5,7-3.4,10.7c-0.2,1-0.7,1.9-1.3,2.8c-0.3,0.5-0.4,0.8,0,1.2
	c0.2,0.3,0.4,0.5,0.5,0.6c1.1-0.2,2-0.5,3-0.6h1.4c1.2-0.1,2.4-0.2,3.7-0.2c0.5,0,1,0.1,1.4,0.1c1.3,0,2.6-0.1,3.9-0.1h4.2
	c0.3-1.1,0.3-1.2-0.2-1.9C151.1,115.8,150.6,114.5,150.1,113.2z M207.5,96.2c-0.2-0.5-0.7-1-0.9-1.4c-0.8-1.9-2.4-2.9-4.1-3.4
	c-1.8-0.6-3.8-0.7-5.7-0.9c-1.9-0.2-3.8-0.1-5.8-0.2c-0.6-0.1-0.9,0.1-1,0.7c-0.1,1.1-0.3,2-0.3,3.1v8.8c0,2.4-0.1,4.9-0.1,7.3
	c0,0.3,0.2,0.6,0.3,0.8c0.7-0.1,1.3-0.4,1.5-0.2c1.3,0.2,2.4,0.3,3.7,0.1c1.1-0.2,2-0.3,3.1-0.4c3.5-0.2,6.3-1.6,8.6-4.1
	c0.5-0.6,1-1.3,1.2-2.1c0.3-1.2,0.3-2.4,0.3-3.6C208.3,99.1,208,97.7,207.5,96.2z M151.5,117.1c-0.5-1.3-1-2.6-1.4-3.9
	c-1.3-3.5-2.4-7-3.6-10.6c-1.2-3.4-2.6-6.5-3.5-10c0-0.2,0-0.3-0.1-0.4c-0.2-0.2-0.5-0.5-0.7-0.5c-0.2,0-0.5,0.3-0.6,0.5
	c-0.2,0.4-0.3,0.8-0.4,1.3c-0.1,0.8-0.1,1.5-0.3,2.2c-0.6,2-1.3,4-1.8,6.1c-0.3,1-0.6,1.9-1,2.9c-1.5,3.5-2.5,7-3.4,10.7
	c-0.2,1-0.7,1.9-1.3,2.8c-0.3,0.5-0.4,0.8,0,1.2c0.2,0.3,0.4,0.5,0.5,0.6c1.1-0.2,2-0.5,3-0.6h1.4c1.2-0.1,2.4-0.2,3.7-0.2
	c0.5,0,1,0.1,1.4,0.1c1.3,0,2.6-0.1,3.9-0.1h4.2C152,118,152,117.9,151.5,117.1z M207.5,96.2c-0.2-0.5-0.7-1-0.9-1.4
	c-0.8-1.9-2.4-2.9-4.1-3.4c-1.8-0.6-3.8-0.7-5.7-0.9c-1.9-0.2-3.8-0.1-5.8-0.2c-0.6-0.1-0.9,0.1-1,0.7c-0.1,1.1-0.3,2-0.3,3.1v8.8
	c0,2.4-0.1,4.9-0.1,7.3c0,0.3,0.2,0.6,0.3,0.8c0.7-0.1,1.3-0.4,1.5-0.2c1.3,0.2,2.4,0.3,3.7,0.1c1.1-0.2,2-0.3,3.1-0.4
	c3.5-0.2,6.3-1.6,8.6-4.1c0.5-0.6,1-1.3,1.2-2.1c0.3-1.2,0.3-2.4,0.3-3.6C208.3,99.1,208,97.7,207.5,96.2z M151.5,117.1
	c-0.5-1.3-1-2.6-1.4-3.9c-1.3-3.5-2.4-7-3.6-10.6c-1.2-3.4-2.6-6.5-3.5-10c0-0.2,0-0.3-0.1-0.4c-0.2-0.2-0.5-0.5-0.7-0.5
	c-0.2,0-0.5,0.3-0.6,0.5c-0.2,0.4-0.3,0.8-0.4,1.3c-0.1,0.8-0.1,1.5-0.3,2.2c-0.6,2-1.3,4-1.8,6.1c-0.3,1-0.6,1.9-1,2.9
	c-1.5,3.5-2.5,7-3.4,10.7c-0.2,1-0.7,1.9-1.3,2.8c-0.3,0.5-0.4,0.8,0,1.2c0.2,0.3,0.4,0.5,0.5,0.6c1.1-0.2,2-0.5,3-0.6h1.4
	c1.2-0.1,2.4-0.2,3.7-0.2c0.5,0,1,0.1,1.4,0.1c1.3,0,2.6-0.1,3.9-0.1h4.2C152,118,152,117.9,151.5,117.1z M207.5,96.2
	c-0.2-0.5-0.7-1-0.9-1.4c-0.8-1.9-2.4-2.9-4.1-3.4c-1.8-0.6-3.8-0.7-5.7-0.9c-1.9-0.2-3.8-0.1-5.8-0.2c-0.6-0.1-0.9,0.1-1,0.7
	c-0.1,1.1-0.3,2-0.3,3.1v8.8c0,2.4-0.1,4.9-0.1,7.3c0,0.3,0.2,0.6,0.3,0.8c0.7-0.1,1.3-0.4,1.5-0.2c1.3,0.2,2.4,0.3,3.7,0.1
	c1.1-0.2,2-0.3,3.1-0.4c3.5-0.2,6.3-1.6,8.6-4.1c0.5-0.6,1-1.3,1.2-2.1c0.3-1.2,0.3-2.4,0.3-3.6C208.3,99.1,208,97.7,207.5,96.2z
	 M151.5,117.1c-0.5-1.3-1-2.6-1.4-3.9c-1.3-3.5-2.4-7-3.6-10.6c-1.2-3.4-2.6-6.5-3.5-10c0-0.2,0-0.3-0.1-0.4
	c-0.2-0.2-0.5-0.5-0.7-0.5c-0.2,0-0.5,0.3-0.6,0.5c-0.2,0.4-0.3,0.8-0.4,1.3c-0.1,0.8-0.1,1.5-0.3,2.2c-0.6,2-1.3,4-1.8,6.1
	c-0.3,1-0.6,1.9-1,2.9c-1.5,3.5-2.5,7-3.4,10.7c-0.2,1-0.7,1.9-1.3,2.8c-0.3,0.5-0.4,0.8,0,1.2c0.2,0.3,0.4,0.5,0.5,0.6
	c1.1-0.2,2-0.5,3-0.6h1.4c1.2-0.1,2.4-0.2,3.7-0.2c0.5,0,1,0.1,1.4,0.1c1.3,0,2.6-0.1,3.9-0.1h4.2C152,118,152,117.9,151.5,117.1z
	 M207.5,96.2c-0.2-0.5-0.7-1-0.9-1.4c-0.8-1.9-2.4-2.9-4.1-3.4c-1.8-0.6-3.8-0.7-5.7-0.9c-1.9-0.2-3.8-0.1-5.8-0.2
	c-0.6-0.1-0.9,0.1-1,0.7c-0.1,1.1-0.3,2-0.3,3.1v8.8c0,2.4-0.1,4.9-0.1,7.3c0,0.3,0.2,0.6,0.3,0.8c0.7-0.1,1.3-0.4,1.5-0.2
	c1.3,0.2,2.4,0.3,3.7,0.1c1.1-0.2,2-0.3,3.1-0.4c3.5-0.2,6.3-1.6,8.6-4.1c0.5-0.6,1-1.3,1.2-2.1c0.3-1.2,0.3-2.4,0.3-3.6
	C208.3,99.1,208,97.7,207.5,96.2z M151.5,117.1c-0.5-1.3-1-2.6-1.4-3.9c-1.3-3.5-2.4-7-3.6-10.6c-1.2-3.4-2.6-6.5-3.5-10
	c0-0.2,0-0.3-0.1-0.4c-0.2-0.2-0.5-0.5-0.7-0.5c-0.2,0-0.5,0.3-0.6,0.5c-0.2,0.4-0.3,0.8-0.4,1.3c-0.1,0.8-0.1,1.5-0.3,2.2
	c-0.6,2-1.3,4-1.8,6.1c-0.3,1-0.6,1.9-1,2.9c-1.5,3.5-2.5,7-3.4,10.7c-0.2,1-0.7,1.9-1.3,2.8c-0.3,0.5-0.4,0.8,0,1.2
	c0.2,0.3,0.4,0.5,0.5,0.6c1.1-0.2,2-0.5,3-0.6h1.4c1.2-0.1,2.4-0.2,3.7-0.2c0.5,0,1,0.1,1.4,0.1c1.3,0,2.6-0.1,3.9-0.1h4.2
	C152,118,152,117.9,151.5,117.1z M207.5,96.2c-0.2-0.5-0.7-1-0.9-1.4c-0.8-1.9-2.4-2.9-4.1-3.4c-1.8-0.6-3.8-0.7-5.7-0.9
	c-1.9-0.2-3.8-0.1-5.8-0.2c-0.6-0.1-0.9,0.1-1,0.7c-0.1,1.1-0.3,2-0.3,3.1v8.8c0,2.4-0.1,4.9-0.1,7.3c0,0.3,0.2,0.6,0.3,0.8
	c0.7-0.1,1.3-0.4,1.5-0.2c1.3,0.2,2.4,0.3,3.7,0.1c1.1-0.2,2-0.3,3.1-0.4c3.5-0.2,6.3-1.6,8.6-4.1c0.5-0.6,1-1.3,1.2-2.1
	c0.3-1.2,0.3-2.4,0.3-3.6C208.3,99.1,208,97.7,207.5,96.2z M151.5,117.1c-0.5-1.3-1-2.6-1.4-3.9c-1.3-3.5-2.4-7-3.6-10.6
	c-1.2-3.4-2.6-6.5-3.5-10c0-0.2,0-0.3-0.1-0.4c-0.2-0.2-0.5-0.5-0.7-0.5c-0.2,0-0.5,0.3-0.6,0.5c-0.2,0.4-0.3,0.8-0.4,1.3
	c-0.1,0.8-0.1,1.5-0.3,2.2c-0.6,2-1.3,4-1.8,6.1c-0.3,1-0.6,1.9-1,2.9c-1.5,3.5-2.5,7-3.4,10.7c-0.2,1-0.7,1.9-1.3,2.8
	c-0.3,0.5-0.4,0.8,0,1.2c0.2,0.3,0.4,0.5,0.5,0.6c1.1-0.2,2-0.5,3-0.6h1.4c1.2-0.1,2.4-0.2,3.7-0.2c0.5,0,1,0.1,1.4,0.1
	c1.3,0,2.6-0.1,3.9-0.1h4.2C152,118,152,117.9,151.5,117.1z M207.5,96.2c-0.2-0.5-0.7-1-0.9-1.4c-0.8-1.9-2.4-2.9-4.1-3.4
	c-1.8-0.6-3.8-0.7-5.7-0.9c-1.9-0.2-3.8-0.1-5.8-0.2c-0.6-0.1-0.9,0.1-1,0.7c-0.1,1.1-0.3,2-0.3,3.1v8.8c0,2.4-0.1,4.9-0.1,7.3
	c0,0.3,0.2,0.6,0.3,0.8c0.7-0.1,1.3-0.4,1.5-0.2c1.3,0.2,2.4,0.3,3.7,0.1c1.1-0.2,2-0.3,3.1-0.4c3.5-0.2,6.3-1.6,8.6-4.1
	c0.5-0.6,1-1.3,1.2-2.1c0.3-1.2,0.3-2.4,0.3-3.6C208.3,99.1,208,97.7,207.5,96.2z M151.5,117.1c-0.5-1.3-1-2.6-1.4-3.9
	c-1.3-3.5-2.4-7-3.6-10.6c-1.2-3.4-2.6-6.5-3.5-10c0-0.2,0-0.3-0.1-0.4c-0.2-0.2-0.5-0.5-0.7-0.5c-0.2,0-0.5,0.3-0.6,0.5
	c-0.2,0.4-0.3,0.8-0.4,1.3c-0.1,0.8-0.1,1.5-0.3,2.2c-0.6,2-1.3,4-1.8,6.1c-0.3,1-0.6,1.9-1,2.9c-1.5,3.5-2.5,7-3.4,10.7
	c-0.2,1-0.7,1.9-1.3,2.8c-0.3,0.5-0.4,0.8,0,1.2c0.2,0.3,0.4,0.5,0.5,0.6c1.1-0.2,2-0.5,3-0.6h1.4c1.2-0.1,2.4-0.2,3.7-0.2
	c0.5,0,1,0.1,1.4,0.1c1.3,0,2.6-0.1,3.9-0.1h4.2C152,118,152,117.9,151.5,117.1z M151.5,117.1c-0.5-1.3-1-2.6-1.4-3.9
	c-1.3-3.5-2.4-7-3.6-10.6c-1.2-3.4-2.6-6.5-3.5-10c0-0.2,0-0.3-0.1-0.4c-0.2-0.2-0.5-0.5-0.7-0.5c-0.2,0-0.5,0.3-0.6,0.5
	c-0.2,0.4-0.3,0.8-0.4,1.3c-0.1,0.8-0.1,1.5-0.3,2.2c-0.6,2-1.3,4-1.8,6.1c-0.3,1-0.6,1.9-1,2.9c-1.5,3.5-2.5,7-3.4,10.7
	c-0.2,1-0.7,1.9-1.3,2.8c-0.3,0.5-0.4,0.8,0,1.2c0.2,0.3,0.4,0.5,0.5,0.6c1.1-0.2,2-0.5,3-0.6h1.4c1.2-0.1,2.4-0.2,3.7-0.2
	c0.5,0,1,0.1,1.4,0.1c1.3,0,2.6-0.1,3.9-0.1h4.2C152,118,152,117.9,151.5,117.1z M151.5,117.1c-0.5-1.3-1-2.6-1.4-3.9
	c-1.3-3.5-2.4-7-3.6-10.6c-1.2-3.4-2.6-6.5-3.5-10c0-0.2,0-0.3-0.1-0.4c-0.2-0.2-0.5-0.5-0.7-0.5c-0.2,0-0.5,0.3-0.6,0.5
	c-0.2,0.4-0.3,0.8-0.4,1.3c-0.1,0.8-0.1,1.5-0.3,2.2c-0.6,2-1.3,4-1.8,6.1c-0.3,1-0.6,1.9-1,2.9c-1.5,3.5-2.5,7-3.4,10.7
	c-0.2,1-0.7,1.9-1.3,2.8c-0.3,0.5-0.4,0.8,0,1.2c0.2,0.3,0.4,0.5,0.5,0.6c1.1-0.2,2-0.5,3-0.6h1.4c1.2-0.1,2.4-0.2,3.7-0.2
	c0.5,0,1,0.1,1.4,0.1c1.3,0,2.6-0.1,3.9-0.1h4.2C152,118,152,117.9,151.5,117.1z"/>
<g>
	<path class="st1" d="M437.8,92.7h3c1.3,0.1,2.7,0.2,4,0.2h10.9c1.9,0,3.8-0.1,5.8-0.1c0.2-0.1,0.5-0.2,0.7-0.3
		c0.1-0.3,0.1-0.4,0.1-0.6c0-3.1-0.1-6.1-0.1-9.1c0-1.1-0.4-1.4-1.4-1.3c-0.6,0-1.2,0.1-1.7,0.1c-1.7-0.1-3.5-0.2-5.2-0.2
		c-3.3,0-6.4,0.2-9.7,0.2c-4.2,0-8.5-0.1-12.7-0.2c-1.2-0.1-2.4-0.2-3.6,0c-1.5,0.3-3.1,0.4-4.7,0.3c-0.9,0-1.8,0.1-2.7,0.2
		c-0.5,0.1-0.7,0.4-0.6,0.9c0.5,0,1,0.1,1.4,0.2v0.8c0.1,2,0.2,4.1,0.3,6.3c0.1,0.6,0.2,1.3,0.2,1.8c0,1.6,0.1,3.2,0.1,4.8
		c0,1.9,0.1,3.8,0.1,5.7c0,2.5-0.1,4.9-0.2,7.4c0,2.3,0,4.5-0.1,6.8c0,2.2-0.3,4.4-0.3,6.6c0,2.6,0.1,5.2,0.2,7.8
		c0,0.9-0.1,1.7,0,2.6c0.4,3.3,0.7,6.5,0.4,9.8c0.5,0.5,1,0.4,1.5,0.4c1.6-0.1,3.2-0.4,4.8-0.1c0.8,0.1,1.5,0.2,2.3,0.2
		c2.6,0,5.3-0.1,7.9-0.1c3.5,0.1,7,0.1,10.6,0.2c1.3,0,2.7-0.1,3.9,0.1c2.9,0.4,5.8-0.1,8.7-0.1c0.1,0,0.3-0.1,0.5-0.2v-0.8
		c-0.4-2.1-0.5-4.2-0.3-6.4c0.1-1.3,0.3-2.6-0.3-3.8c-0.3,0-0.7-0.1-1-0.1c-1.3,0-2.5,0.1-3.8,0.1c-3.9,0-7.6,0.3-11.5,0.1
		c-2.9-0.2-5.9-0.2-8.9-0.3c0-0.8,0.1-1.3,0-2c-0.5-3.4-0.2-6.8-0.2-10.3v-1.3c0-0.6,0.3-0.9,0.9-0.9h4.2c1.2,0,2.4,0.2,3.7,0.2
		c2.8,0,5.6-0.1,8.4-0.2c0.6,0,1.1,0,1.5,0.5c0.4,0.5,1,0.2,1-0.5v-3.8c0-1.9-0.1-3.8-0.1-5.7v-1.2h-19.2c-0.5-1.3-0.4-2.4-0.2-3.6
		c0.1-3.4-0.3-6.6,0-9.9C436.5,92.9,436.6,92.7,437.8,92.7z M435.4,92.6c-0.1,1.9-0.4,3.8-0.1,5.7c0.3,2.1,0.1,4.2,0.1,6.4
		c0.1,1.1,0.2,2.1,0.2,3.2c0,0.5,0.3,0.8,0.8,0.8h8.9c2.7,0,5.4-0.1,8.1-0.2h1.5c-0.2,2.9,0.6,5.6,0.2,8.6c-0.8,0.1-1.4,0.2-2.1,0.2
		c-0.9,0.1-1.8,0.1-2.8,0.1h-10c-1.2-0.1-2.4-0.1-3.6-0.2c-1,0-1.3,0.3-1.3,1.3s0.1,1.8,0.1,2.8c0,1.9-0.1,3.9-0.1,5.9
		c0,1.2,0.1,2.4,0.2,3.6v2.1c-0.8,0-1.4,0-1.4,1.1c0.3,0,0.6,0.2,0.9,0.2c1-0.1,1.8-0.3,2.8-0.3c1.1,0,2,0.2,3.1,0.2
		c1.2,0.1,2.4,0.1,3.7,0.1c0.8,0,1.4,0.1,2.2,0.1c2.6-0.1,5.3-0.1,8-0.2h5.2c0.6,0,0.9,0.3,0.9,1v1.9c0.1,1.3,0.1,2.7,0.1,4v1.5
		c-0.9,1-2,1-3,1c-1.6,0.1-3.2-0.1-4.7-0.1c-1.3,0-2.6-0.1-3.9-0.1c-1.7-0.1-3.5-0.2-5.2-0.2c-3,0-6.1-0.1-9,0.4h-0.6
		c-2.3-0.1-4.7-0.3-7-0.4h-3.7c0-1.3,0-2.4-0.1-3.6c-0.1-1.9-0.4-3.9-0.6-5.8c-0.1-1.1-0.2-2.1-0.3-3.3c-0.1-2.3-0.3-4.7-0.2-7
		c0-2.1,0.4-4.1,0.6-6.2c0.1-0.7-0.1-1.4,0.7-1.8c0.1-0.1,0.1-0.4,0.1-0.6c-0.1-0.8-0.1-1.5-0.2-2.3c-0.1-1.5-0.3-3.2-0.4-4.8
		c0-0.5-0.2-0.9-0.2-1.3V103c-0.1-3.4-0.2-6.8-0.4-10.3c-0.1-2.5-0.4-4.9-0.5-7.3c0-0.8,0.1-1.4,0.2-2.3c0.9,0,1.6,0.1,2.4,0
		c1,0,1.8-0.2,2.8-0.3c1.2-0.1,2.2-0.2,3.4-0.2c1.3,0,2.6,0.2,3.9,0.2c2.1,0.1,4.2,0.2,6.4,0.2c1.9,0,3.9-0.2,5.8-0.2
		c2.2-0.1,4.4-0.1,6.6-0.1h7.3c0.2,3,0.4,6,0,8.9c-0.3,0.1-0.4,0.2-0.6,0.2c-4.2,0.1-8.6,0.1-12.8,0.2c-2,0.1-4,0-6.1,0
		c-1.6-0.1-3.4-0.1-5-0.2C435.6,91.7,435.4,91.8,435.4,92.6z"/>
	<path class="st1" d="M368.9,133.6c0-0.3-0.2-0.6-0.3-0.9c-8.5-0.1-16.7-0.1-25.2-0.2c-0.1-0.7-0.2-1.2-0.2-1.6v-6
		c0-1.4-0.2-3-0.2-4.5c-0.1-0.8-0.2-1.5,0.3-2.3c0.2,0,0.4,0.1,0.6,0.1c1.7-0.1,3.6-0.3,5.4-0.3c2.3-0.1,4.7,0.1,7,0
		c1.9-0.1,3.8-0.2,5.6,0c0.4,0,0.8-0.2,1.1-0.3v-9.3c0.5-0.2,0.8-0.3,1.2-0.5c-0.7-1-1.4-0.8-2.2-0.8c-1.1,0-2,0.2-3.1,0.2
		c-2.3,0-4.6-0.1-6.9-0.2h-4.7c-1.3,0-2.7,0.2-4-0.2c-0.1-0.5-0.3-0.8-0.3-1.2c-0.1-2.4-0.3-4.8-0.3-7.2c-0.1-1.6,0.1-3.3,0.2-4.9
		c0-1.3,0.5-1.6,1.7-1.5c0.5,0,1,0.1,1.4,0.1c2.9,0.1,5.8,0.1,8.7,0.2c1.6,0,3.2,0.1,4.8,0.1c2.6,0.1,5.1,0.1,7.7,0.1
		c0.5,0,1.1,0,1.6-0.1c0-1-0.2-1.6,0-2.3c0-0.8,0.1-1.4,0.1-2.2c0.1-1.9,0.1-3.8,0.1-5.7c0-0.4-0.2-0.7-0.6-0.7
		c-0.3,0-0.6-0.1-0.8,0c-1.6,0.4-3.3,0.3-4.9,0.2c-2.5-0.1-5.1-0.4-7.6-0.5c-4-0.1-8.1,0.1-12-0.3c-1.2-0.1-2.3,0-3.5,0
		c-1.1-0.1-2-0.2-3.1-0.2c-2.2,0-4.4,0.6-6.6,0.3c-0.3,0-0.6,0.1-0.9,0.2c-0.4,0.1-0.5,0.5-0.5,0.9c0.1,0.7,0.2,1.3,0.2,1.9
		c0.2,3.1,0.2,6.2,0,9.2c-0.3,3.2-0.1,6.4-0.1,9.5c-0.1,2.9,0,5.9-0.1,8.9c-0.1,2.5-0.2,5,0.1,7.5c0.3,3.2,0.1,6.4,0,9.7
		c-0.1,3.2-0.5,6.4-0.2,9.5c0.1,1.3,0.5,2.8-0.1,4.1c-0.2,0.6,0.2,1,0.8,1.1h0.8c1.6,0,3.2-0.2,4.8-0.2h4.4c2.8,0,5.5,0.1,8.3,0.1
		c1.6,0.1,3.3,0.2,4.9,0.2c2.7,0.1,5.5,0.1,8.2,0.1c2.2,0.1,4.3,0.2,6.4,0.2c0.7,0,0.9,0.5,1.3,0.8c0.2-0.2,0.5-0.4,0.5-0.6
		C369.1,140.6,369.2,137.1,368.9,133.6z M367.3,142.8c-0.8,0.1-1.3,0.3-1.9,0.3c-1.7,0-3.6-0.1-5.3-0.2c-1.9-0.1-3.9-0.1-5.9-0.1
		c-4.3-0.1-8.8-0.1-13.1-0.2c-1.9,0-3.8-0.2-5.6-0.2c-1.3,0-2.7,0.2-4,0.3c0,0-0.1,0.1-0.2,0.1c-1.6,0.2-2.1-0.2-2-1.8
		c0.1-1.2-0.1-2.3-0.1-3.5c0-2.2-0.1-4.3,0.1-6.4c0.2-2.2,0.2-4.3,0.2-6.5c0.1-1.8,0-3.6-0.1-5.4c-0.1-1.3-0.2-2.6-0.3-3.9
		c0-0.9,0-1.7,0.2-2.6c0.2-1.3,0.1-2.5,0-3.8c0-0.6,0.2-1.2,0.2-1.7c0-3-0.1-6-0.1-9c0-2.1,0.2-4.3,0.3-6.4c0.1-1.8,0.2-3.6,0-5.4
		c-0.2-1.3,0-2.7,0.1-4c1.3-0.1,2.7-0.3,3.9-0.1c2-0.1,4.1,0,6.2,0h1.8c1.2,0,2.3,0.2,3.5,0.2c2.4,0.1,4.7,0.1,7,0.1
		c2.6,0.1,5.1,0.1,7.7,0.4c2.4,0.3,4.9,0.1,7.3,0.1v8.5c-0.6,0.1-1.2,0.2-1.7,0.2c-2.7-0.1-5.5-0.2-8.2-0.2
		c-3.2-0.1-6.4-0.1-9.5-0.1c-1.2,0-2.4-0.1-3.6-0.2h-0.4c-1.6-0.1-2,0.2-2.1,1.8c-0.2,1.6-0.4,3.4-0.4,5c-0.1,1.7,0,3.6,0.1,5.3
		c0.1,1.5,0.2,3.1,0.3,4.6c0,0.1,0,0.1,0.1,0.3c0.2,0,0.6,0.1,0.9,0.1c2.3-0.1,4.5-0.1,6.8-0.1c2.5,0.1,5,0.2,7.5,0.3
		c1.4,0,2.9,0.1,4.4,0.1v8.2c-0.6,0.1-1.1,0.2-1.5,0.2h-8.4c-2.4,0-4.7,0.1-7.1,0.2c-0.4,0-0.8-0.1-1.2-0.1
		c-1.3-0.1-1.6,0.2-1.6,1.4c0,2.7,0.1,5.4,0.1,8.1c0,1.5,0.1,3,0,4.4c0,0.9-0.4,1.6-0.6,2.6c8.6,0.3,17.2-0.2,25.9,0.4
		C368,136.9,367.2,139.8,367.3,142.8z"/>
	<path class="st1" d="M120.8,80h-3.8c-2.5,0-5-0.3-7.5,0c-1,0.2-1.8,0.3-2.7,0.9c-1,0.7-1.5,1.4-1.8,2.4c-1.3,3.7-2.7,7.2-3.8,10.9
		c-0.5,1.6-1.2,3.2-1.7,4.7c-0.5,1.2-0.9,2.3-1.3,3.5c-0.7,1.6-1.5,3.2-2,4.9c-0.4,1.3-0.9,2.5-1.3,3.8c-0.5,1.3-0.8,2.6-1.3,3.8
		c-1.3,3.2-2.4,6.4-3.2,9.7c0,0.2-0.2,0.4-0.4,0.8c-0.3-0.5-0.5-0.9-0.6-1.3c-0.3-1.1-0.6-2.2-1-3.3c-0.5-1.4-1-2.9-1.5-4.3
		c-1.3-3.2-2-6.5-3.6-9.6c0-0.2-0.1-0.3-0.1-0.4c-0.8-2.5-1.6-5.1-2.5-7.7c-0.8-2.3-1.7-4.5-2.6-6.8c-0.8-2-1.3-4-2.1-6.1
		c-0.7-1.7-1.4-3.5-2.7-4.9c-0.7-0.7-1.3-1.2-2.2-1.3c-0.9-0.1-1.6-0.2-2.5-0.2h-9.2c-1,0-1.2,0.4-0.9,1.2c0.8,1.8,1.4,3.7,2.2,5.5
		c1.3,3.1,2.6,6.3,3.9,9.3c0.5,1.3,1,2.7,1.5,4c1,2.4,2,4.8,2.9,7.2c0.6,1.3,0.8,2.9,1.3,4.2c1,2.3,2,4.6,3,6.9
		c0.9,2.1,1.8,4.1,2.6,6.2c0.7,1.6,1.2,3.4,1.7,5c1.3,4.1,3.2,8.1,4.9,12c0.2,0.7,0.6,1,1.3,1c0.3-0.1,0.6,0,0.9,0
		c2.7,0.1,5.3,0.2,8,0.3c1.1,0.1,2.1,0.2,3.5,0.4c0.3-0.5,0.6-1.1,1-1.7c0.9-2,1.6-4,2.5-6.1c0.8-1.8,1.5-3.6,2.2-5.4
		c0.8-1.9,1.5-3.9,2.3-5.9c0.3-0.9,0.7-1.7,1.1-2.6c0.9-2.1,1.7-4.3,2.7-6.4c1.3-2.8,2.5-5.5,3.1-8.4c0.1-0.3,0.3-0.5,0.4-0.8
		c0.8-1.9,1.7-3.9,2.5-5.9c0.7-1.7,1.3-3.5,1.9-5.1c0.5-1.2,1.2-2.2,1.7-3.4c0.6-1.4,1.3-2.9,1.8-4.3c0.9-2.1,1.7-4.2,2.6-6.5
		C121.5,80.2,121.1,80,120.8,80z M119.2,84.7c-0.9,2-1.7,3.9-2.6,5.9c-0.6,1.3-1.3,2.4-1.8,3.7c-0.7,1.7-1.3,3.6-2,5.4
		c-0.7,1.5-1.3,3-1.9,4.4c-0.9,2-1.7,3.9-2.5,6c-0.6,1.3-1.1,2.8-1.5,4.1c-0.1,0.2-0.2,0.4-0.3,0.6c-1.3,1.5-1.9,3.4-2.5,5.2
		c-0.7,2.1-1.9,3.9-3.1,6c0.6,0.6,0.7,1.2,0.4,1.9c-1.3,3.2-2.5,6.4-3.8,9.5c-0.3,1-0.6,1.8-1,2.8c-0.1,0.5-0.4,0.9-0.6,1.4
		c-1.1-0.1-2-0.1-3-0.2c-1.7-0.1-3.5-0.2-5.2-0.3c-1.2-0.1-2.3-0.1-3.5-0.1c-0.5,0-0.6-0.3-0.8-0.7c-0.8-1.9-1.5-3.9-2.5-5.9
		s-1.5-4-2.3-6.1c-0.5-1.4-0.9-2.9-1.3-4.3c0-0.2,0-0.3-0.1-0.4c-1.3-2.1-2-4.5-3.1-6.7c0-0.1-0.1-0.1-0.1-0.2
		c-0.4-2.1-1.7-3.8-2.5-5.8c-0.2-0.4-0.3-0.7-0.4-1.1c-0.5-2.9-1.7-5.5-2.8-8.2c-0.5-1.3-1.2-2.7-1.7-4c-0.2-0.5-0.3-1.1-0.5-1.6
		c-0.9-2.3-1.7-4.6-2.8-6.8c-1.3-2.7-2.2-5.5-3.4-8.4c0.4-0.1,0.8-0.3,1.2-0.3h6.3c0.9,0,1.8,0.1,2.8,0.2c1.4,0.1,2.3,0.9,2.7,2.2
		c0.1,0.1,0.1,0.2,0.2,0.3c1.3,0.8,1.7,2.3,2.2,3.7c0.9,2.4,1.5,4.8,2.4,7.2c0.5,1.5,1.3,3,1.8,4.4c0.8,2.2,1.4,4.4,2.2,6.5
		c0.6,1.5,1.2,3.1,1.7,4.6c0.8,2.2,1.4,4.4,2.2,6.6c0.5,1.4,1.1,2.7,1.5,4.1c0.8,2.4,1.3,4.7,2,7.1c0.1,0.2,0.1,0.4,0.2,0.6
		c0.5-0.2,1.3-1.3,1.4-1.6c0.5-1.7,0.9-3.5,1.4-5.1c0.7-1.9,1.4-3.8,2.1-5.9c0.5-1.4,0.9-2.9,1.3-4.3c0.5-1.3,0.9-2.7,1.3-4
		c0.6-2.2,2-4,2.7-6.2c0.7-2.1,1.6-4.2,2.3-6.4c0.5-1.3,1-2.5,1.4-3.8c0.5-1.3,1-2.8,1.4-4.1c0.5-1.3,1.1-2.6,1.8-3.8
		c0.8-1.3,1.5-1.4,2.7-1.5c1.9-0.2,3.8-0.2,5.8,0.1c1.3,0.2,2.8-0.1,4.1-0.1c0.3-0.1,0.6,0,1,0C120.1,82.5,119.7,83.6,119.2,84.7z"
		/>
	<path class="st1" d="M318.5,115.6c-1.6-2.9-3.9-5.1-7-6.5c-3.7-1.7-7.6-3-11.4-4.4c-1.3-0.5-2.4-0.9-3.6-1.4
		c-0.6-0.3-1.2-0.8-1.7-1.2c-0.4-0.3-0.7-0.6-1.1-1c-0.7-0.7-0.5-1.6-0.8-2.4c-0.6-1.5-0.4-2.8,0.7-4c0.3-0.4,0.6-0.8,0.9-1.2
		c1-1.3,2.4-1.7,3.8-2c2.1-0.5,4.2,0.1,6.3,0.8c1,0.3,1.8,1,2.8,1.4c1.3,0.7,2.6,1.3,3.9,1.9c1.3,0.5,2.5,0.4,3.6-0.5
		c1-0.8,1.6-1.7,2-3c0.6-1.6,1.3-3.2,2.7-4.6c-0.3-0.4-0.6-0.7-0.8-1c-0.9-0.6-1.7-1.1-2.6-1.6c-2-1.4-4.1-2.6-6.4-3.4
		c-1.7-0.6-3.7-1.1-5.5-1.2c-3.3-0.2-6.4-0.2-9.7,0.5c-1.5,0.4-3.1,0.6-4.5,1.4c-0.6,0.4-1.2,0.7-1.7,1.1c-3.2,1.9-5.7,4.3-7.3,7.7
		c-0.5,0.9-0.9,1.8-1.3,2.8c-0.7,1.7-1.1,3.5-1.1,5.3c0,2.3,0.3,4.6,1,6.8c0.1,0.4,0.2,0.8,0.4,1.2c1.1,2.2,2.8,3.8,4.5,5.5
		c0.4,0.5,1,0.9,1.5,1.2c1.9,0.9,3.9,1.7,6,2.6c2.8,1.3,5.8,2.1,8.7,3.1c1.3,0.4,2.8,1,3.9,1.9c2.3,2.1,3,6.4,0.5,9.2
		c-0.4,0.5-1,0.9-1.5,1.1c-1.3,0.5-2.6,0.9-3.9,1c-1.3,0.1-2.6,0.1-3.9-0.3c-1.3-0.5-2.6-0.9-3.9-1.3c-0.6-0.2-1.2-0.3-1.6-0.6
		c-1.7-1.2-3.6-2.1-5.5-2.9c-1.3-0.5-2.3-0.3-3.3,0.6c-0.6,0.5-1,1.2-1.3,1.7c-1.3,1.8-2.1,3.8-3.7,5.4c-0.3,0.2-0.4,0.5-0.6,0.8
		c0.4,0.2,0.7,0.2,0.9,0.4c1.3,0.9,2.4,1.8,3.8,2.6c1.7,1,3.5,1.8,5.3,2.7c2.8,1.3,5.7,2.1,8.8,2.4c2.8,0.3,5.5,0.3,8.2-0.2
		c2.3-0.4,4.5-1.1,6.5-2.2c1.2-0.8,2.3-1.5,3.5-2.3c0.6-0.4,1.2-0.7,1.6-1.1c2.6-2,3.9-4.9,4.9-7.9c0.8-2,1-4.2,1.1-6.4
		C320.4,121.1,320,118.2,318.5,115.6z M317.3,132.3c-0.7,1.3-1.4,2.5-2.3,3.7c-0.5,0.7-1.3,1.3-2,1.7c-1.9,1.3-3.9,2.8-6.1,3.8
		c-0.7,0.3-1.3,0.7-2.1,0.4c-0.2,0-0.5,0-0.6,0.1c-0.7,1.1-1.8,0.9-2.7,1c-3.6,0.3-7.1,0.5-10.6-0.4c-3.9-1-7.6-2.5-11.1-4.7
		c-0.9-0.6-1.7-1.3-2.3-2.2c0.8-1.3,1.6-2.6,2.4-3.9l0.9-1.4c0.4-0.8,1.1-1.3,1.8-1.6c0.3-0.2,0.9-0.2,1.2,0
		c1.7,0.9,3.6,1.7,5.3,2.6c0.5,0.3,1.1,0.5,1.5,0.7c1.7,0.6,3.4,1.3,5.1,1.7c1.3,0.3,2.7,0.1,4,0.2c1.7,0.1,3.3-0.6,4.7-1.3
		c1.3-0.7,2.2-1.7,2.6-3.3c0.6-2.1,0.5-4.1-0.3-6.2c-0.2-0.6-0.3-1.3-0.6-1.7c-0.4-0.7-1-1.1-1.6-1.4c-1.9-1.3-4-1.7-6.2-2.5
		c-1.3-0.5-2.6-0.9-3.9-1.3c-2.3-0.9-4.5-1.7-6.7-2.7c-1.2-0.6-2.2-1.3-3.3-2.1c-0.2-0.1-0.4-0.4-0.5-0.7c-0.2-0.6-0.5-1-1.1-1.3
		c-1.2-0.7-1.6-1.8-2-2.9c-1.5-4.5-2.1-9,0.2-13.6c0.2-0.4,0.3-0.9,0.5-1.3c1.3-2.6,3-4.7,5.4-6.2c0.9-0.5,1.7-1.1,2.6-1.6
		c1.2-0.7,2.3-1.2,3.6-1.4c3.3-0.7,6.5-1,9.8-0.9c3.6,0.1,6.7,1.1,9.8,2.7c1.3,0.7,2.4,1.6,3.7,2.4c0.6,0.3,1.1,0.7,1.5,1
		c-0.8,1.8-1.4,3.5-2.2,5.1c-0.6,1.4-1.8,2.2-3.2,2.1c-0.4-0.1-0.7-0.3-1.1-0.4c-1.9-0.8-3.7-1.7-5.5-2.7c-1.1-0.6-2.3-0.9-3.5-1.2
		c-2.2-0.6-4.4-0.5-6.5,0.6c-0.7,0.3-1.3,0.7-1.7,1.2c-0.7,0.7-1.3,1.4-1.8,2.3c-0.7,1-0.7,2.2-0.9,3.4c0,0.3-0.1,0.7-0.1,1
		c-0.1,0.2-0.1,0.5,0,0.6c0.8,0.5,0.8,1.3,1.1,1.9c0.2,0.5,0.6,0.9,1,1.2c1.9,1.2,3.6,2.5,5.8,3c0.2,0,0.3,0,0.4,0.1
		c1.6,1.3,3.8,1.2,5.6,2c3,1.5,6.4,2.3,9,4.6c0.3,0.3,0.7,0.5,0.9,0.8c1.3,1.7,2.8,3.4,3.3,5.6c0.3,1,0.5,1.8,0.1,2.8
		c-0.1,0.2,0,0.6,0.2,0.7c0.5,0.3,0.5,0.7,0.5,1.1C319.2,126.4,318.6,129.4,317.3,132.3z"/>
	<path class="st1" d="M58.1,122.8c-0.1-1.9-0.5-3.8-0.9-5.6c-0.3-1.5-0.9-3.1-1.8-4.3c-2.1-2.7-4.7-4.6-7.8-6
		c-2.7-1.3-5.6-2.1-8.5-3c-2.2-0.7-4.3-1.5-6.4-2.6c-1-0.5-1.8-1.3-2.1-2.3c-0.3-1.2-0.7-2.3-0.3-3.6c0.7-1.7,1.5-3.1,3.4-3.8
		c1.7-0.7,3.5-1,5.4-1c1.7,0,3.2,0.8,4.7,1.3c1.8,0.7,3.4,1.9,5.3,2.5c1.6,0.5,3.1,0.3,4.1-1.1c0.6-0.9,1.1-1.8,1.5-2.7
		c0.8-1.4,1.4-2.8,2.2-4.1c0.4-0.6,0.3-0.9-0.2-1.3c-1.3-1.2-2.8-2-4.4-2.8c-2.7-1.3-5.5-2.6-8.5-3.3c-0.8-0.2-1.6-0.2-2.4-0.3
		c-1.7-0.1-3.6-0.5-5.4-0.2c-1,0.1-1.8,0.3-2.8,0.4c-1.8,0.2-3.7,0.5-5.2,1.6c-0.7,0.4-1.3,0.8-1.9,1.2c-2.7,1.4-4.9,3.4-6.6,5.9
		c-0.4,0.5-0.7,1.2-0.9,1.7c-0.3,0.9-0.5,1.7-0.9,2.5c-0.6,1.2-1.1,2.2-1.3,3.5c-0.3,1.9-0.3,3.9,0,5.9c0.3,2.7,1.7,5.1,3.3,7.3
		c0.5,0.7,1.1,1.3,1.6,1.8c2.2,1.9,4.7,3.3,7.4,4.1c3.7,1.3,7.4,2.3,11,3.8c2.8,1.2,5,4,4.6,7.3c-0.2,1.5-0.8,2.9-2.1,3.8
		c-3.7,2.4-7.5,2.2-11.5,0.8c-2.3-1-4.5-2.1-6.5-3.7c-1.8-1.3-4.4-0.9-5.7,1.1c-1.2,1.7-2.2,3.4-3.3,5.1c-0.4,0.7-0.6,1.4-0.9,2.1
		c0.3,0.2,0.4,0.4,0.3,0.7c2.7,1.5,5.3,3.3,8.2,4.5c1.5,0.7,3.2,1.4,4.8,1.8c3.7,1,7.4,1.3,11.2,0.9c1.3-0.2,2.7-0.4,4-0.7
		c2-0.5,3.8-1.3,5.4-2.5c1.3-1,2.9-1.8,3.9-3c1.6-1.8,3.3-3.9,4.2-6.3C57.6,128,58.3,125.5,58.1,122.8z M57.3,124.7
		c-0.1,1.8-0.8,3.6-1.3,5.3c-0.2,0.9-0.8,1.6-1.3,2.4c-1,1.3-2,2.6-3.1,3.9c-0.5,0.6-1.3,1-1.9,1.4c-2.1,1.4-4.3,2.7-6.8,3.4
		c-3.2,0.9-6.4,1.2-9.5,0.8c-2.8-0.4-5.5-0.9-8.1-2.1c-1.7-0.9-3.5-1.6-5.1-2.5c-1-0.5-1.7-1.3-2.6-1.8c-0.5-0.4-1.1-0.6-1.7-1
		c1.2-1.9,2.2-3.9,3.4-5.9c0.5-0.7,1-1.3,1.9-1.4c0.7-0.2,1.3-0.3,1.9,0.2c1.6,1.1,3.3,1.8,4.9,2.7c3.8,2.1,7.9,2.8,12.1,1.6
		c1.5-0.5,2.9-1.4,4-2.5c0.9-0.8,1.2-1.9,1.3-3.1c0.2-1.1,0.2-2.2-0.1-3.4c-0.2-0.7-0.5-1.3-0.9-1.8c-1.1-1.7-2.6-2.8-4.4-3.6
		c-2.2-1-4.5-1.5-6.8-2.4c-2.8-1.1-5.8-1.8-8.4-3.5c-2-1.3-3.6-3-4.8-4.9c-1-1.4-1.5-3.1-2-4.7c-0.1-0.5-0.1-0.9-0.2-1.3
		c-0.5-3.4,0.1-6.4,1.6-9.4c0.4-0.9,0.9-1.7,1.1-2.6c0.3-1.3,1.3-2,2.1-2.9c0.7-0.6,1.3-1.2,2.1-1.6c1.7-1.2,3.4-2.5,5.4-3.2
		c1-0.3,1.9-0.6,2.9-0.8c1.6-0.3,3.3-0.5,4.9-0.6c0.8-0.1,1.4,0.1,2.2,0.2c3.9,0.4,7.6,1.3,11.1,3.3c0.8,0.5,1.6,0.7,2.4,1.2
		c0.8,0.4,1.4,1,2.1,1.4c0.4,0.4,0.3,0.9,0.1,1.3c-0.9,1.7-1.6,3.5-2.6,5.2c-0.8,1.3-1.8,1.6-3.4,1.3c-2-0.5-3.7-1.7-5.6-2.5
		c-2.3-1-4.6-1.5-7.1-1.2c-1.5,0.3-3,0.6-4.2,1.3c-1,0.5-1.8,1.3-2.4,2.2c-0.8,1.2-1.2,2.6-1.6,3.9c-0.1,0.2-0.1,0.4,0,0.5
		c0.7,2,1.8,3.9,3.9,4.7c1.9,0.8,3.9,1.6,5.9,2.3c1.9,0.7,3.8,1.2,5.7,1.8c2.5,1,5.1,2,7.2,3.8c2.5,2.1,4.4,4.5,4.9,7.8
		c0.2,1.3,0.6,2.4,0.5,3.7c0,0.8,0.3,1.5,0.4,2.3V124.7z"/>
	<path class="st1" d="M226.8,142.2c-0.8-1.2-1.5-2.3-2.3-3.5c-1.2-1.9-2.2-3.9-3.4-5.8c-1.3-2.1-2.5-4.1-3.8-6.3
		c-1.3-2.1-2.6-4.2-3.9-6.4c-0.8-1.3-1.7-2.3-3.2-2.8c-0.2-0.1-0.4-0.2-0.6-0.4c1.3-0.9,2.4-1.6,3.7-2.6c0.6-0.6,1.2-1.3,1.8-1.6
		c1.8-1.1,3-2.7,4.1-4.3c1.3-1.8,1.8-3.8,2.3-6c0.1-0.5,0.3-1,0.3-1.4c0-1.9-0.1-3.9-0.3-5.8c-0.1-0.8-0.3-1.6-0.6-2.3
		c-0.8-1.8-1.5-3.7-2.8-5.3c-1.2-1.4-2.6-2.8-4.2-3.6c-2.6-1.3-5.4-2.2-8.1-3.1c-3.2-1-6.5-1.1-9.9-1c-2.3,0.1-4.7,0.2-7.1,0.2
		c-3.9-0.1-7.9-0.2-11.7-0.3c-0.8,1.1-0.8,1.1-0.7,2.1c0.1,0.6,0.1,1.2,0.1,1.7v4.3c0,1.6,0.1,3.3,0.1,4.9
		c-0.1,3.9-0.3,7.8-0.4,11.7c-0.1,1.3,0.1,2.6,0.1,3.9c0,1.9-0.1,3.8-0.1,5.6c0,0.8,0.1,1.6,0.1,2.4c-0.1,3.1-0.3,6.1-0.4,9.1
		c0,1.7,0.1,3.6,0.2,5.4c0,1.3,0,2.7,0.1,4c0.1,2,0.3,3.9-0.2,6c-0.1,0.6,0.2,0.9,0.9,0.9c1.1,0.1,2.1,0.1,3.2,0
		c2.9-0.2,5.7,0,8.5,0.3c1.6,0.2,2-0.2,2-1.8v-8.2c0-2.6,0-5.1,0.1-7.7c0.1-1.3,0.2-2.8,0.3-4.2c0-0.6,0.5-0.9,1-0.9
		c1.5-0.2,3.1-0.1,4.5,0.4c0.3,0.1,0.7,0.3,0.9,0.6c1.2,1.6,2.4,3.3,3.4,5c2.1,3.8,4.2,7.5,6.4,11.4c0.6,1.2,1.2,2.2,1.6,3.4
		c0.6,1.1,1.3,1.8,2.6,2c1.2,0.2,2.4,0.4,3.6,0.4c2.5,0.1,4.9,0,7.3,0.1c1.3,0.1,2.6-0.3,3.9,0.5c0.1,0.1,0.7-0.2,0.8-0.4
		C227,142.9,227,142.4,226.8,142.2z M223.7,142.1c-2.2-0.1-4.3-0.1-6.4-0.2c-1.6-0.1-3.4-0.2-5-0.3c-1.1-0.1-1.8-0.5-2.3-1.5
		c-0.4-1.1-1-2.1-1.4-3.2c-0.2-0.5-0.6-1-0.9-1.4c-0.5-1-1.1-1.9-1.5-2.9c-1.3-2.7-2.8-5.3-4.4-7.8c-0.9-1.3-1.7-2.6-2.6-3.9
		c-0.8-1.2-1.8-1.7-3.3-1.8c-1.6-0.1-3.2-0.2-4.8-0.2c-0.4,0-0.8,0.4-1.1,0.5v2.6c-0.1,1.7-0.1,3.6-0.1,5.3c0,0.8,0.1,1.4,0.1,2.2
		c-0.1,2.4-0.2,4.7-0.2,7.1c-0.1,1.3-0.5,2.6-0.1,3.9c0.1,0.3-0.2,0.7-0.3,1.1h-11c-1,0-1.2-0.3-1.1-1.3c0.2-1.5,0.2-3-0.1-4.5
		c-0.2-0.6-0.1-1.3-0.1-1.8c-0.1-1.6-0.2-3.2-0.2-4.8c0-1.6,0.1-3.3,0.1-4.9c0.1-1.8,0-3.6,0.2-5.4c0.2-1.3-0.1-2.8-0.1-4.2
		c0-1.7,0.1-3.5,0.1-5.2c0-2.2-0.1-4.4,0-6.6c0.1-3.4,0.3-6.8,0.5-10.2c0-0.3,0.1-0.6,0-0.9c-0.5-1.8-0.2-3.7-0.1-5.5
		c0.1-0.7,0-1.4,0-2.1v-0.6c0.1-0.7,0.2-1.3,0.4-2h9.1c2.6,0.1,5.3,0.2,8,0.2c2.1,0.1,4.1-0.1,6.2,0.1c1.6,0.1,3.3,0.5,4.8,1
		c2.3,0.8,4.6,1.5,6.8,2.5c1,0.4,1.8,1.1,2.6,1.7c0.9,0.7,1.8,1.3,2.1,2.5c0.1,0.4,0.7,0.7,0.9,1.1c1.3,2.1,2.1,4.3,2.1,6.9
		c0,0.9,0.1,1.7,0.2,2.6c0.2,2.5-0.5,4.9-1.6,7.2c-0.5,1-1.2,1.7-1.8,2.6c-0.6,0.8-1.3,1.4-2.1,2c-0.9,0.6-1.6,1.3-2.6,1.8
		c-0.3,0.1-0.5,0.3-0.6,0.5c-0.5,1.4-1.8,1.6-3,2.2c-0.6,0.2-1.1,0.4-1.6,0.6c-0.5,0.1-1.1,0.2-1.5,0.3c-0.2,0.1-0.3,0.2-0.6,0.3
		c0.3,0.8,0.9,1,1.4,0.6c1.7-0.9,3,0.2,4.2,1.1c1.3,1,2,2.5,2.9,3.9c1.3,2.1,2.6,4.3,3.9,6.4c1.1,1.8,2.1,3.8,3.3,5.6
		c0.7,1.1,1.3,2.1,1.9,3.2c0.7,1.1,1.3,2.2,1.9,3.3C224.6,142,224.3,142.1,223.7,142.1z"/>
	<path class="st1" d="M173.2,140.6c-0.6-1.5-1.3-3.1-2-4.6c-0.7-1.6-1.6-3.4-2.1-5.1c-0.8-2.9-2-5.6-3-8.4c-0.7-2.1-1.5-4.2-2.3-6.4
		s-1.3-4.4-2.2-6.6c-1.2-2.9-2.4-5.8-3.6-8.7c-1.2-2.9-2.2-5.9-3.4-8.8c-1.1-2.8-2.1-5.5-3.2-8.3c-0.3-0.6-0.6-1.1-0.5-1.8
		c0.1-1.3-0.8-1.9-2-1.9c-3.6,0-7-0.1-10.6-0.2h-2.1c-0.7,0.1-1.3,0.3-1.3,1c0,1-0.6,1.7-1,2.6c-1.3,3.1-3,6-3.8,9.2v0.1
		c-0.8,1.8-1.6,3.7-2.3,5.6c-1.1,2.7-2,5.5-3.1,8.2c-0.6,1.6-1.2,3.2-1.9,4.7c-0.8,1.6-1.6,3.3-2.1,5c-0.6,2.1-1.2,4.1-1.8,6.2
		c-0.6,1.7-1.3,3.4-2,5c-0.5,1.3-1.3,2.4-1.7,3.7c-0.6,1.3-1.1,2.8-1.5,4.1c-0.7,1.9-1.3,3.8-2,5.7c-0.5,1.4-0.4,1.6,1.2,1.6h5.2
		c1.7,0,3.4,0.1,5.1,0c0.6-0.1,1.2-0.3,1.7-0.6c1.3-0.6,1.8-1.9,2.3-3.1c1.1-2.6,1.9-5.3,2.9-8c0.2-0.6,0.5-1.3,0.7-1.7
		c0.2-0.1,0.3-0.1,0.4-0.1c2.5,0.4,4.9-0.1,7.4-0.2c1.6,0,3.2-0.2,4.8-0.2c1.9,0,3.8,0.1,5.7,0.1c1.4,0.1,3,0.1,4.4,0.1
		c0.5,0,1,0.1,1.2,0.7c0.4,1.1,0.7,2.2,1.1,3.4c1,2.6,1.8,5.2,2.8,7.8c0.5,1,1.3,1.6,2.5,1.7h9.7c1.1,0,2,0.1,3.2,0.1
		C174.2,142,173.8,141.4,173.2,140.6z M167.2,141.4c-0.8,0-1.4,0.1-2.2,0.2c-0.9,0.1-1.7,0.1-2.6,0.2c-1.4,0.2-2.4-0.5-3.1-1.7
		c-0.4-0.8-0.7-1.5-1-2.3c-0.7-2.1-1.3-4.3-2-6.4c-0.2-0.7-0.6-1.3-0.9-2.1c0.1-0.2,0.2-0.5,0.4-0.8c-0.1-0.1-0.1-0.2-0.2-0.3
		c-0.2-0.1-0.5-0.3-0.7-0.3c-1.6-0.1-3.3-0.1-4.9-0.1c-1.3,0-2.6,0.2-3.9,0.2c-1.3,0-2.6-0.1-3.9-0.2c-0.5-0.1-0.9,0.1-1.3,0.1
		c-1.7,0.2-3.6,0.2-5.3,0.4c-1.6,0.1-3.3,0.2-4.9-0.1c-0.6-0.1-1.2-0.3-1.8-0.4c-0.3,0.5-0.2,0.9,0.1,1.3c0.1,0.2,0.2,0.6,0.1,0.8
		c-0.3,0.8-0.3,1.6-0.5,2.4c-0.7,2.7-1.6,5.4-3.3,7.8c-0.5,0.8-1.2,1.3-2.1,1.2c-0.6-0.1-1.1,0.1-1.5,0.3c-0.8,0.2-1.6,0.1-2.5,0.1
		h-6.4c0.5-1.5,0.9-2.9,1.3-4.2c0.8-1.9,1.4-3.8,2.2-5.8c0.4-0.9,1-1.7,1.3-2.6c0.9-2.1,1.5-4.2,2.4-6.4c1-2.3,1.3-4.7,2.2-7
		c0.5-1.3,1.1-2.4,1.6-3.6c0.5-1.1,1-2.2,1.4-3.4c0.3-0.7,0.5-1.3,0.8-1.9c1.2-2.2,1.6-4.6,2.5-6.8c1-2.4,1.9-4.7,2.8-7.1
		c0.3-0.7,0.3-1.3,0.6-2c0.6-1.3,1.2-2.6,1.7-3.9c0.5-1.1,1-2.1,1.5-3.2c0.4-0.6,0.7-1.3,1-1.8c0.2-0.5,0.6-0.7,1.1-0.7
		c1.7,0,3.6-0.1,5.3,0.2c1.1,0.1,2.1-0.1,3.2-0.1c1,0,1.9,0.1,2.9,0.1c0.5,0,0.7,0.3,0.9,0.7c1.1,2.4,2.1,4.7,3.1,7.1
		c0.5,1,0.7,1.9,1.1,2.9c1.1,2.8,2.2,5.6,3.3,8.4c0.7,1.8,1.4,3.6,2.1,5.3c0.9,2.2,1.8,4.4,2.7,6.7c0.5,1.3,0.9,2.6,1.3,3.9
		c0.2,0.8,0.5,1.4,0.8,2.2c0.8,2.3,1.5,4.5,2.4,6.8c0.3,0.8,0.8,1.4,1.1,2.2c0.2,0.4,0.4,0.9,0.5,1.3c0.5,2.2,1.3,4.4,2.3,6.5
		c1,1.8,1.6,3.9,2.4,5.8C170.5,141.2,168.8,141.1,167.2,141.4z"/>
	<path class="st1" d="M274.7,86.2c-0.1-1.3-0.2-2.8-0.2-4.1c0-0.8-0.2-1.1-1-1.1c-0.5,0-1,0.1-1.4,0.1h-1.6
		c-1.2-0.1-2.3-0.2-3.5-0.2c-4.4,0-8.9-0.1-13.3-0.1h-6.2c-1.9,0-3.9,0.1-5.9,0.1c-0.8,0-1.4-0.2-2.2-0.1c-2.6,0.3-5.3,0.2-7.9,0.2
		c-1.6,0-3.3-0.1-4.9-0.5c-0.3-0.1-0.7-0.1-1-0.1c-1,0-1.2,0.2-1.2,1.2c0.1,1.9,0.1,3.8,0.1,5.7c0,1.3-0.1,2.7-0.1,4
		c0,0.9,0.2,1,1.1,0.9c1.2-0.1,2.3-0.2,3.5-0.2c2.2,0,4.3,0.1,6.5,0.2c1.7,0.1,3.5,0.1,5.2,0.1c1.3,0.1,1.6,0.4,1.6,1.5V96
		c0,1.4-0.1,3-0.1,4.4c0,1.3,0.2,2.8,0.2,4.1c-0.1,3.2-0.2,6.4-0.3,9.5v4.3c0,1.3,0.1,2.8,0.1,4.1c0,1.9-0.2,3.9-0.2,5.8v6
		c0.1,2.3,0.1,4.7,0.1,7c0,1.3,0.5,1.7,1.6,1.6c1.1-0.1,2.2-0.2,3.3-0.2c2.3,0.1,4.7-0.2,7.1,0.3c0.7,0.2,1.3,0.3,1.9,0.4
		c0.4,0.1,0.7-0.1,0.7-0.6c0-0.3-0.1-0.6-0.1-0.9c-0.1-0.9-0.2-1.8-0.2-2.7c0-4.1-0.1-8.4,0.3-12.5c0.3-3.1-0.1-6.3-0.1-9.4
		c0-4.5-0.2-9,0.1-13.6c0.2-3.5,0-6.8,0-10.3v-1c0.4-0.1,0.8-0.1,1.1-0.1h8.9c1.6-0.1,3.3-0.2,4.9-0.2h2.7c0.1-0.6,0.3-1,0.4-1.3
		C274.8,89.4,274.8,87.9,274.7,86.2z M273.3,91.2c-2.2,0.1-4.4,0.2-6.5,0.3c-1.1,0.1-2,0.2-3,0.2c-1.2,0-2.3-0.1-3.5-0.1
		c-1.3-0.1-2.6-0.1-3.9-0.2c-0.5,0-0.8,0.2-0.9,0.7c-0.1,0.3-0.1,0.6-0.1,0.9c0.5,2.8,0.3,5.7,0.1,8.5c-0.1,1.2-0.1,2.3-0.1,3.5
		c0,2.4-0.1,4.8-0.1,7.2c0,3,0.1,6,0.2,9c0,1.6,0.1,3.2,0.1,4.8c-0.1,1.3-0.3,2.5-0.4,3.8c-0.1,1.4-0.1,3-0.1,4.4
		c0,1.4,0.1,2.9-0.2,4.3c-0.2,1.2-0.1,2.4-0.2,3.6h-11.9v-2.9c0-2.2-0.1-4.5-0.1-6.7c0-2.2,0.2-4.3,0.2-6.4c0-2,0-4.1-0.1-6.2
		c-0.2-2.8-0.1-5.6,0.1-8.4c0.2-2.5,0.3-5,0-7.6c-0.2-1.3,0.1-2.6,0.1-3.9c0.1-2,0.1-3.9,0.1-6v-2.3c-0.8-0.5-1.5-0.4-2.3-0.4
		c-3.1,0-6.1,0.1-9.1,0c-2,0-4-0.2-6.2-0.3c0-1.4,0.1-3,0.1-4.4c-0.1-1.4-0.4-2.9,0.1-4.4c0.6-0.3,1.1-0.4,1.7-0.2
		c1.4,0.4,3,0,4.4,0.2c0.5,0.1,1.1,0.1,1.5,0.1c2.2-0.1,4.5-0.3,6.7-0.4c0.9-0.1,1.8,0.1,2.8,0.1c1.9-0.1,3.9-0.2,5.9-0.2
		c0.9-0.1,1.8,0,2.7,0c3.4,0.1,6.7,0.2,10.1,0.3c1.3,0,2.6,0.2,3.8,0.3c0.4,0,0.8,0.1,1.2,0c1.7-0.6,3.5-0.1,5.2-0.1
		c0.1,0,0.3,0.1,0.4,0.1c1.2,0,1.2,0,1.2,1.1c0.1,1.9,0.2,3.9,0.2,5.9C273.6,89.8,273.4,90.5,273.3,91.2z"/>
	<path class="st1" d="M515.4,85.8V82h-1.8c-2.2,0.1-4.3,0.2-6.5,0.2c-1.8,0-3.8-0.2-5.6-0.2c-3.9-0.1-7.7-0.1-11.6-0.1h-4.5
		c-1.3,0-2.7,0.2-4,0c-2.7-0.4-5.4-0.7-8.2-0.5c-2.3,0.2-4.7,0.2-7.1,0.3c-0.2,0-0.3,0.1-0.6,0.2c0.1,1.4,0.2,2.9,0.5,4.1
		c0.1,1.9,0.1,3.8,0,5.7c-0.1,1,0.1,1.3,1,1.3c1.6,0.1,3.3,0.2,4.9,0.2c1.2,0.1,2.4-0.1,3.7-0.1c1,0,1.9,0.1,2.9,0.1
		c0.8,0.1,1.6,0,2.4,0c0.8-0.1,1.5-0.1,2.3-0.2c0.1,0.4,0.2,0.8,0.2,1.2v6.5c0,2.2-0.1,4.3,0,6.5c0.1,2.5,0,5-0.1,7.5
		c-0.1,2.8-0.3,5.5-0.3,8.3c-0.1,1.7,0.1,3.5,0.1,5.2v7.9c0,0.8,0.2,1.4,0.2,2.1v4.5c0,0.5,0.2,1.1,0.3,1.6c2.3-0.5,4.6-0.5,6.8-0.4
		h6.8c0-0.3,0.1-0.6,0.1-1c-0.1-1.6-0.2-3.4-0.2-5c0-1.9,0.1-3.8,0.2-5.8c0.1-2.3,0.3-4.7,0.3-7c0-1.7-0.2-3.6-0.2-5.4v-14.2
		c0-1.3,0.1-2.8,0.1-4.1c0-0.6-0.1-1.3-0.1-1.9c-0.1-1.3,0.5-2.4,0.1-3.7c-0.1-0.6,0.1-1.2,0.1-1.7c0.1-0.6,0.4-0.9,1-0.9h0.9
		c4.8,0.2,9.7-0.4,14.5,0.4c1,0.2,1.4-0.4,1.3-1.3v-1.3C515.2,89.4,515.3,87.6,515.4,85.8z M514,90.9c0,0.5,0.1,0.9,0.1,1.4
		c-1.2,0-2.1,0-3.2-0.3c-0.6,0-1.1-0.1-1.6-0.1h-6.4c-1.6,0-3.3,0.1-4.9,0.2c-1.2,0.1-1.5,0.6-1.5,1.7c0,2.6-0.2,5.2-0.1,7.8
		c0,1.6-0.1,3.2-0.1,4.8c-0.1,1.4,0,3,0,4.5c0,1.6-0.1,3.4-0.2,5c0,0.7-0.2,1.3,0.2,1.8c0.1,0.1,0.1,0.3,0.1,0.5
		c0.1,2.2,0.2,4.5,0.2,6.7c0,1.3,0,2.5-0.1,3.8c-0.1,2.5-0.3,4.9-0.4,7.3c0,0.8,0.2,1.4,0.2,2.2c0,1.4-0.1,2.9-0.2,4.4
		c-3.9,0.1-7.7,0.1-11.6,0.2c-0.1-0.3-0.2-0.8-0.2-1.3c-0.1-2.5-0.2-5.1-0.3-7.6v-0.5c0.4-3.5-0.1-7-0.1-10.5c0-2.5,0.2-4.9,0.2-7.4
		c0-3.4,0.4-6.6-0.1-10v-1.3c0.1-2.5,0.1-4.9,0.2-7.4v-2.1c0-0.8-0.2-1.5,0.2-2.3c0.3-0.6-0.3-1.2-1-1c-2.5,0.7-5.1,0.5-7.7,0.3
		c-1.1-0.1-2.1,0.1-3.2,0.1H467c-0.2-3.1-0.3-6.1-0.5-9.1h3.9c0.5,0,1-0.2,1.4-0.3c0.3-0.1,0.7-0.2,1-0.2c2.9-0.1,5.7,0.2,8.6,0.5
		c1.4,0.2,3,0,4.4,0c0.6,0,1.3-0.1,1.9-0.1c2.6,0.1,5.1,0.1,7.7,0.2c2.2,0,4.5,0.2,6.7,0.2c3.4,0,6.8-0.1,10.2-0.2
		c1.3,0,1.6,0.3,1.6,1.5C514.1,86.7,514.3,88.8,514,90.9z"/>
	<path class="st1" d="M413.4,131.6c-0.5,0.9-0.5,0.9-1.1,1c-1.4,0-2.9-0.1-4.3-0.1c-1.7-0.1-3.6-0.3-5.3-0.2c-2.1,0-4.2,0.3-6.4,0.4
		c-1.3,0-2.5,0-3.8-0.1c-1,0-1.3-0.4-1.3-1.2c-0.1-1.6-0.2-3.3-0.2-4.9c0-1.4,0.2-3,0.2-4.5c0.1-1.8-0.1-3.7,0.1-5.5
		c0.3-3,0.2-5.9,0.2-8.9c0-1.9-0.3-3.8-0.3-5.7v-8.5c0-1.3,0.2-2.7,0.3-4c0-0.4,0-0.8-0.1-1.2c-0.2-1.4-0.3-3,0-4.4
		c0.1-0.8,0.1-1.5,0.2-2.5c-0.6,0.1-1.2,0.1-1.6,0.1c-3.2,0.1-6.4,0.1-9.6,0.2c-0.9,0-1.8-0.1-2.7,0c-0.8,0-1,0.5-0.6,1.1
		c0.4,0.7,0.5,1.3,0.5,2c-0.1,1.9-0.2,3.9-0.4,5.9c-0.3,2.6-0.5,5.2-0.1,7.8c0.1,0.9,0.2,1.7,0.2,2.6v8.1c0,1.9-0.1,3.8-0.2,5.8
		c-0.1,1.3-0.2,2.5-0.2,3.8c-0.1,1.9-0.1,3.9-0.1,5.9c0,1.6,0.2,3.3,0.2,4.9v4.8c0,1.4-0.1,2.9-0.1,4.3c0,1.3-0.1,2.8-0.1,4.2
		c0,0.7,0,1.3,0.4,1.6c1.8-0.1,3.5-0.3,5.1-0.4c2-0.1,4.1-0.2,6.2-0.2c4.1-0.1,8.2-0.2,12.3-0.3c2.6,0,5.3,0.1,8,0.3
		c1.8,0.2,3.7,0.2,5.6,0.3c0-0.6,0.1-1.1,0.1-1.5v-5.1c0-1.4,0.1-2.9,0.2-4.3C414.7,132.3,414.3,131.8,413.4,131.6z M413.3,136
		c-0.2,1.6-0.2,3.2-0.3,4.8v1.3c-1.3,0.5-2.5,0.5-3.8,0.4c-2.5-0.1-5-0.5-7.6-0.2c-1.4,0.2-3.1,0.1-4.6,0.1
		c-3.5,0.1-6.9-0.1-10.4,0.3c-1.1,0.1-2.2,0-3.4,0c-1.2,0-2.3,0.1-3.5,0.1c-0.2,0-0.4,0.1-0.6,0.1c-1.2,0.1-1.3-0.2-1.3-1.3
		c0.1-0.5,0-1.1,0-1.5c0.2-2.6,0.3-5.3,0-7.9c-0.1-1.2,0.2-2.3,0.2-3.5c0.1-0.9,0-1.8-0.1-2.8c-0.2-1.3-0.1-2.5,0-3.9
		c0.1-1.3,0-2.6,0-3.9c0.1-2.2,0.2-4.4,0.3-6.6c0.1-1.4,0-3,0-4.4c0-1.3,0-2.4,0.1-3.7c0.1-1.4-0.1-2.9-0.2-4.3
		c-0.1-1.9-0.4-3.9-0.3-5.9c0.1-1.9,0.4-3.9,0.6-6c0.1-0.8,0-1.6,0-2.4v-2.1c3.9,0,7.7-0.3,11.1-0.5c0,1.3-0.2,2.6,0,3.8
		c0.5,2.8-0.1,5.6,0,8.4c0.1,1.2,0.2,2.3,0.2,3.5c0,0.7,0.1,1.3,0,2c-0.2,2.5,0.3,5.1,0.3,7.6c0.1,1.4,0.1,2.9,0.1,4.3
		c0,0.8-0.2,1.4-0.2,2.1c-0.1,1.8-0.1,3.7-0.2,5.5c0,0.8,0.1,1.4,0.1,2.2v1.4c-0.2,2.6-0.3,5.3,0,7.9c0,0.8,0.3,1.6-0.9,2.3
		c0.8,0.2,1.1,0.4,1.4,0.4c3.2-0.1,6.4-0.3,9.6-0.4c1.4-0.1,2.8-0.2,4.2-0.2c1.4,0,2.9,0.2,4.3,0.2h4.5
		C413.4,134.3,413.4,135.1,413.3,136z"/>
	<path class="st1" d="M528.4,135.4c-0.6-1.3-1.3-2.7-2.6-3.5c-0.6-0.3-1.1-0.6-1.6-0.9c-1.1-0.6-2.3-0.9-3.5-0.7
		c-0.8,0.2-1.4,0.1-2.1-0.2c-0.5,0.4-0.8,0.7-1.2,0.8c-1.2,0.9-2.1,1.8-2.9,2.9c-0.8,1.1-1.3,2.3-1.2,3.7c0.2,1.3,0.4,2.5,0.8,3.7
		c1.1,3.4,3.2,4.3,6.1,4.2c1.9-0.1,3.8-0.7,5.5-1.7c1.3-0.8,2.1-1.6,2.4-3.1c0.2-1.1,0.3-2.1,0.4-3.2
		C528.6,136.8,528.6,136.1,528.4,135.4z M527,137.7c-0.1,0.2-0.1,0.5-0.1,0.8c0.1,3.5-0.8,3.9-3.4,5.1c-1.3,0.5-2.5,0.9-3.8,0.8
		c-2.5-0.2-4-1.3-4.6-3.6c-0.2-1-0.5-2-0.7-3.1c0.1-1.4,0.9-2.6,1.6-3.7c1.3-1.6,3.1-2.7,5.2-2.8c1.8-0.1,4.6,1.3,5.5,3.4
		C527.1,135.7,527.6,136.7,527,137.7z"/>
	<path class="st1" d="M207.5,96.2c-0.2-0.5-0.7-1-0.9-1.4c-0.8-1.9-2.4-2.9-4.1-3.4c-1.8-0.6-3.8-0.7-5.7-0.9
		c-1.9-0.2-3.8-0.1-5.8-0.2c-0.6-0.1-0.9,0.1-1,0.7c-0.1,1.1-0.3,2-0.3,3.1v8.8c0,2.4-0.1,4.9-0.1,7.3c0,0.3,0.2,0.6,0.3,0.8
		c0.7-0.1,1.3-0.4,1.5-0.2c1.3,0.2,2.4,0.3,3.7,0.1c1.1-0.2,2-0.3,3.1-0.4c3.5-0.2,6.3-1.6,8.6-4.1c0.5-0.6,1-1.3,1.2-2.1
		c0.3-1.2,0.3-2.4,0.3-3.6C208.3,99.1,208,97.7,207.5,96.2z M207.1,101.3c-0.1,1.3-0.4,2.4-0.9,3.6c-0.5,1.3-1.3,2-2.4,2.6
		c-1.6,0.9-3.3,1.5-5.2,1.7c-1.8,0.2-3.7,0.6-5.6,0.5c-2.2-0.1-2.5-0.4-2.5-2.6c0-1.3,0.2-2.7,0.2-4c0.1-2.3,0.1-4.6,0.1-6.9
		c0.1-1.5-0.2-3.1,0.3-4.7c3.7-0.1,7.1-0.1,10.3,0.7c2,0.6,3.5,1.7,4.5,3.5C207.1,97.4,207.3,99.3,207.1,101.3z"/>
	<path class="st1" d="M151.5,117.1c-0.5-1.3-1-2.6-1.4-3.9c-1.3-3.5-2.4-7-3.6-10.6c-1.2-3.4-2.6-6.5-3.5-10c0-0.2,0-0.3-0.1-0.4
		c-0.2-0.2-0.5-0.5-0.7-0.5c-0.2,0-0.5,0.3-0.6,0.5c-0.2,0.4-0.3,0.8-0.4,1.3c-0.1,0.8-0.1,1.5-0.3,2.2c-0.6,2-1.3,4-1.8,6.1
		c-0.3,1-0.6,1.9-1,2.9c-1.5,3.5-2.5,7-3.4,10.7c-0.2,1-0.7,1.9-1.3,2.8c-0.3,0.5-0.4,0.8,0,1.2c0.2,0.3,0.4,0.5,0.5,0.6
		c1.1-0.2,2-0.5,3-0.6h1.4c1.2-0.1,2.4-0.2,3.7-0.2c0.5,0,1,0.1,1.4,0.1c1.3,0,2.6-0.1,3.9-0.1h4.2C152,118,152,117.9,151.5,117.1z
		 M135.2,118.4c-0.1-0.1-0.1-0.2-0.1-0.3c1-3.2,1.9-6.4,3-9.6c1.1-3.3,2.3-6.4,3.5-9.5c0.4-1.1,0.5-2.2,0.8-3.4c0-0.4,0.1-0.7,0.2-1
		c0.1-0.1,0.2-0.1,0.3-0.1c2.7,7.7,5.4,15.5,8.2,23.6C145.6,118.2,140.4,118.3,135.2,118.4z"/>
</g>
<rect y="0.1" class="st0" width="546" height="76.8"/>
<rect x="0" y="145.7" class="st0" width="546" height="79.1"/>
<rect x="532.5" y="60.6" class="st0" width="13.5" height="95.2"/>
<rect x="0" y="52.6" class="st0" width="13" height="95.2"/>
</svg>
